<svg xmlns="http://www.w3.org/2000/svg" version="1.1" xmlns:xlink="http://www.w3.org/1999/xlink" width="1500" height="1500" viewBox="0 0 1500 1500"><rect width="1500" height="1500" x="0" y="0" id="background" stroke="transparent" fill="#ffffff"></rect><svg xml:space="preserve" width="1000" height="1000" data-version="2" data-id="lg_CGNcimgdcDF4UsI5Ta" viewBox="0 0 467 571" x="250" y="250"><rect width="100%" height="100%" fill="transparent"></rect><circle r="151.4" fill="#707070" stroke="#444" opacity=".85" transform="translate(233.42 203.77)scale(1.3055)"></circle><rect width="350.19" height="131.08" x="-175.1" y="-65.54" fill="#fff" rx="0" ry="0" transform="translate(233.5 354.84)scale(1.3055)"></rect><path fill="#444" d="M48.52 389.705q0 5.61 2.8 9.79 2.81 4.18 6.84 7.13 4.04 2.95 10.95 6.98 7.2 4.03 11.59 7.27 4.39 3.24 7.42 8 3.02 4.75 3.02 11.08 0 7.06-3.46 12.68-3.45 5.61-10.15 8.85-6.69 3.24-15.91 3.24-11.52 0-20.59-5.04-.72-.43-1.01-1.15-.29-.72-.43-1.58l-1.87-19.59q-.15-.57.72-.72.86-.14 1 .43 2.02 10.08 8.5 17.72 6.48 7.63 16.99 7.63 7.2 0 12.1-3.96 4.89-3.96 4.89-12.6 0-6.48-2.95-11.31-2.95-4.82-7.2-8.06t-11.16-7.27q-6.77-4.03-10.87-7.13-4.1-3.1-6.91-7.63-2.81-4.54-2.81-10.59 0-7.2 3.82-12.31 3.81-5.11 9.93-7.63 6.12-2.52 13.03-2.52 8.64 0 17 3.46 2.3.86 2.3 2.44l.86 16.56q0 .58-.79.65-.79.07-.93-.5-.58-4.47-2.88-9.15-2.31-4.68-6.84-7.99-4.54-3.31-11.02-3.31-8.06 0-12.02 4.68-3.96 4.68-3.96 11.45"></path><rect width="53.49" height="93.31" x="-26.75" y="-46.66" fill="none" rx="0" ry="0" transform="translate(64.9 418.57)"></rect><path fill="#444" d="M168.04 451.915q.14-.15.43-.15.57 0 1.08.51.5.5.21.79-4.6 5.9-7.99 8.57-3.38 2.66-6.98 2.66-8.21 0-7.92-11.38l.14-25.63q.15-16.13-8.64-16.13-5.47 0-9.93 5.91-4.47 5.9-7.2 17.42-2.74 11.52-3.03 27.51 0 2.16-4.61 2.16-2.16 0-2.88-.22-.72-.22-.86-.65l.14-3.45.15-7.49 1.01-78.48q0-6.77-4.76-6.77-2.59 0-7.34 2.16h-.29q-.57 0-.79-.65-.22-.65.22-.93l18.86-9.08h.29q.43 0 1.01.44.57.43.57.72l-.57 78.04q2.73-15.12 9-23.68 6.26-8.57 15.19-8.57 6.33 0 9.43 4.61 3.1 4.6 2.95 14.4l-.14 25.63q0 4.32 1.01 6.33 1 2.02 3.16 2.02 3.6 0 9.08-6.62"></path><rect width="72.12" height="105.7" x="-36.06" y="-52.85" fill="none" rx="0" ry="0" transform="translate(134.4 411.94)"></rect><path fill="#444" d="M197.99 465.015q-7.49 0-13.03-3.67-5.55-3.67-8.57-10.01-3.03-6.34-3.03-14.26 0-8.92 3.6-16.12 3.6-7.2 10.01-11.31 6.41-4.1 14.62-4.1 10.94 0 17.78 7.27 6.84 7.27 6.84 20.09 0 9.79-3.89 17.13-3.88 7.35-10.36 11.16-6.48 3.82-13.97 3.82m4.32-3.6q7.05 0 11.66-5.9 4.61-5.91 4.61-15.99 0-7.77-2.66-14.83-2.67-7.06-7.49-11.38-4.83-4.32-10.87-4.32-7.06 0-11.81 5.76-4.75 5.76-4.75 15.84 0 7.64 2.73 14.76 2.74 7.13 7.63 11.6 4.9 4.46 10.95 4.46"></path><rect width="52.85" height="59.47" x="-26.43" y="-29.73" fill="none" rx="0" ry="0" transform="translate(200.29 435.78)"></rect><path fill="#444" d="M256.6 463.145q-3.46 0-7.78-.43v25.92q0 5.04 1.44 6.98 1.44 1.94 5.33 1.94 1.01 0 3.89-.28h.14q.43 0 .58.72.14.72-.44.86l-26.49 3.74q-.58.15-.79-.72-.22-.86.36-1 3.45-.58 4.96-1.52 1.52-.93 2.02-2.95.5-2.01.5-6.77l.15-68.4q-.72.44-6.19 4.9l-.29.14q-.58 0-1.01-.57-.43-.58-.14-.87 2.44-2.3 7.63-6.62v-10.8q0-.29 1.87-2.02 1.87-1.72 3.31-3.74 1.44-2.02 1.44-4.61 0-.57.87-.57.86 0 .86.57v15.55q10.66-6.19 20.3-6.19 9.08 0 13.97 5.47 4.9 5.48 4.9 15.99 0 9.79-3.89 17.85-3.89 8.07-11.02 12.75-7.12 4.68-16.48 4.68m6.76-51.55q-7.05 0-14.54 4.17v40.9q6.19 2.45 11.95 2.45 10.51 0 14.91-6.77 4.39-6.77 4.39-18.87 0-21.88-16.71-21.88"></path><rect width="55.65" height="106.19" x="-27.82" y="-53.1" fill="none" rx="0" ry="0" transform="translate(260.67 450.07)"></rect><path fill="#444" d="M319.38 463.145q-3.46 0-7.78-.43v25.92q0 5.04 1.44 6.98 1.44 1.94 5.33 1.94 1.01 0 3.89-.28h.14q.44 0 .58.72.14.72-.43.86l-26.5 3.74q-.57.15-.79-.72-.22-.86.36-1 3.46-.58 4.97-1.52 1.51-.93 2.01-2.95.51-2.01.51-6.77l.14-68.4q-.72.44-6.19 4.9l-.29.14q-.57 0-1.01-.57-.43-.58-.14-.87 2.45-2.3 7.63-6.62v-10.8q0-.29 1.87-2.02 1.88-1.72 3.32-3.74 1.44-2.02 1.44-4.61 0-.57.86-.57t.86.57v15.55q10.66-6.19 20.31-6.19 9.07 0 13.97 5.47 4.89 5.48 4.89 15.99 0 9.79-3.89 17.85-3.88 8.07-11.01 12.75t-16.49 4.68m6.77-51.55q-7.06 0-14.55 4.17v40.9q6.2 2.45 11.96 2.45 10.51 0 14.9-6.77 4.39-6.77 4.39-18.87 0-21.88-16.7-21.88"></path><rect width="55.65" height="106.19" x="-27.82" y="-53.1" fill="none" rx="0" ry="0" transform="translate(323.45 450.07)"></rect><path fill="#444" d="M378.85 464.295q-4.03 0-6.12-2.88t-1.94-8.5l.43-32.68q.14-8.5-4.18-8.5-3.45 0-9.64 6.91-.29.29-.44.29-.57 0-1-.5-.44-.51-.15-.94 4.32-5.76 8.07-8.57 3.74-2.81 7.77-2.81 4.03 0 5.91 2.74 1.87 2.74 1.87 8.35l-.43 32.98q0 8.35 4.03 8.35 3.6 0 9.21-6.62.15-.15.44-.15.57 0 1.08.51.5.5.21.79-4.46 5.76-7.92 8.49-3.45 2.74-7.2 2.74m-5.04-75.02q-3.02 0-4.75-1.66t-1.73-4.68q0-2.74 1.73-4.32t4.75-1.58q2.74 0 4.39 1.58 1.66 1.58 1.66 4.32 0 3.02-1.58 4.68-1.59 1.66-4.47 1.66"></path><rect width="38.56" height="87.26" x="-19.28" y="-43.63" fill="none" rx="0" ry="0" transform="translate(375.39 421.17)"></rect><path fill="#444" d="M437.03 452.775q.43 0 .86.5.43.51.15.8-6.05 5.61-10.88 8.13-4.82 2.52-9.72 2.52-5.47 0-9.07-2.88-3.6-2.88-3.45-9.36l.14-33.55q-.14-3.74-.58-5.33-.43-1.58-1.8-2.09-1.36-.5-4.68-.5-.57 0-.64-.86-.08-.87.5-.87 5.47 0 8.86-3.09 3.38-3.1 3.96-8 0-.43 1.15-.43 1.44 0 1.44.43v10.66q5.33-.14 20.01-1.01.58 0 .94.36t.36.94q-.14 1.44-1.51 3.17-1.37 1.72-3.1 1.44-9.93-1.3-16.7-1.44l-.15 35.71q0 5.9 2.09 8.57 2.09 2.66 7.42 2.66 4.03 0 7.34-1.66 3.31-1.65 6.91-4.82Z"></path><rect width="40.91" height="66.96" x="-20.46" y="-33.48" fill="none" rx="0" ry="0" transform="translate(418.28 431.75)"></rect><path fill="#444" d="M76.76 558.165q2.85 0 2.85-1.75 0-1.32-2.57-2.07-.49-.14-1.17-.33-1.28-.35-1.73-.52-1.12-.44-1.89-1.26-.77-.83-.77-1.96 0-1.46 1.39-2.42t3.35-.96q1.92 0 3.6.69.82.35 1.34.96.51.6.51 1.26 0 .67-.53 1.06-.52.39-1.09.39-.56 0-.75-.11-.18-.1-.18-.5 0-2.45-2.6-2.45-1.08 0-1.88.48-.8.47-.8 1.24 0 1.19 2.48 1.89.4.1.96.25.56.14 1.03.29.47.14.98.34t1.08.51q.58.32.93.69.83.84.83 2.03 0 1.18-.8 2.05-1.59 1.68-4.57 1.68-1.95 0-3.58-.63-.84-.33-1.35-.92-.51-.58-.51-1.24t.42-1.02q.42-.36.95-.36.54 0 .91.33.38.33.38.82 0 .48-.09 1.04 1.34.5 2.87.5"></path><rect width="10.81" height="12.75" x="-5.41" y="-6.38" fill="none" rx="0" ry="0" transform="translate(77.23 553.77)"></rect><path fill="#444" d="m92.08 548.805-.78.01q-.47 0-.68-.08-.22-.09-.22-.38 0-.28.25-.52.25-.23.56-.36.88-.36 1.05-.6.17-.25.52-1.09.85-2.09 1.42-2.09.29 0 .33.62.05.63.05.96.01.33 0 .99-.01.65-.01.9l3.02.02q.44 0 .75.22.3.22.3.59t-.3.57q-.3.2-.74.2h-3.03l-.02 6.49q0 2.76 1.39 2.76.38 0 1.13-.24.75-.23.97-.23.52 0 .52.59 0 .47-1.22.94-1.23.47-2.51.47-1.29 0-2.02-1t-.73-2.64Z"></path><rect width="8.24" height="15.85" x="-4.12" y="-7.92" fill="none" rx="0" ry="0" transform="translate(95.02 552.12)"></rect><path fill="#444" d="M114.14 556.715q3.21-6.79 3.21-7.17 0-.38-.28-.53-.28-.16-.61-.18-.89-.09-.89-.52 0-1.16 2.73-1.16h.51q1.22 0 1.75.4.52.39.52.73 0 .34-.38.42-.78.14-1.17.44-.39.3-.76 1.1l-1.23 2.73q-.86 1.93-1.45 3.14l-2.72 5.62q-.44.91-1.12 1.51-.67.61-1.6.61t-1.62-.47q-.69-.46-.69-1.19t.44-1.16q.43-.42 1.09-.42.66 0 1.19.33.53.33.55.81 1.02-1.61 1.36-2.51-.53-1.48-2.43-5.16-1.9-3.69-2.1-4.12-.2-.42-.35-.59-.15-.16-.37-.28-.23-.11-.39-.16-.15-.05-.49-.14-.34-.09-.55-.15-.21-.07-.21-.4 0-1.09 2.99-1.09 1.84 0 2.37.19 1 .36 1 .94 0 .4-.76.54-.75.15-.75.55 0 .05.44 1.21 1.46 3.78 2.77 6.13"></path><rect width="15" height="16.7" x="-7.5" y="-8.35" fill="none" rx="0" ry="0" transform="translate(114.08 556)"></rect><path fill="#444" d="m132.27 559.315-1.1.02q-1.66 0-2.05-.51-.18-.23-.18-.55 0-.33.25-.45.26-.13.56-.14.31-.02.56-.2.25-.18.25-.59v-13.41q0-1.15-.91-1.24-.09-.01-.23-.03-.14-.01-.2-.02-.06 0-.16-.02-.09-.02-.14-.05-.04-.02-.08-.06-.09-.08-.09-.37t.39-.61q.71-.58 1.92-.58 1.28 0 1.5.15.43.31.43.8v15.44q0 .74.82.78.82.04.82.65 0 .7-.76.87-.59.12-1.6.12"></path><rect width="5.88" height="18.83" x="-2.94" y="-9.41" fill="none" rx="0" ry="0" transform="translate(132.19 550.42)"></rect><path fill="#444" d="m144.65 557.935-.88-.86q-.88-.87-.88-3.72 0-2.86 1.77-4.64 1.77-1.79 4.51-1.79 2.17 0 3.67 1.41 1.49 1.4 1.49 3.52 0 1.03-1.63 1.03h-7.35q.03 2.05 1.34 3.46 1.3 1.41 3.3 1.41 1.32 0 2.56-.77.66-.41.85-.41.18 0 .41.19.24.18.24.45 0 .69-.9 1.28-.89.6-1.97.88-1.08.29-1.89.29-2.88 0-4.64-1.73m7.34-6.39q-.02-1.46-.76-2.37-.74-.91-2.15-.91-1.42 0-2.48 1.01-1.06 1.02-1.12 2.32h2.97q1.98 0 3.54-.05"></path><rect width="11.44" height="12.74" x="-5.72" y="-6.37" fill="none" rx="0" ry="0" transform="translate(149.11 553.8)"></rect><path fill="#444" d="m175.45 548.805-.78.01q-.47 0-.68-.08-.22-.09-.22-.38 0-.28.25-.52.25-.23.57-.36.87-.36 1.04-.6.17-.25.52-1.09.85-2.09 1.42-2.09.29 0 .34.62.04.63.05.96 0 .33-.01.99-.01.65-.01.9l3.02.02q.44 0 .75.22.3.22.3.59t-.3.57q-.29.2-.74.2h-3.03l-.02 6.49q0 2.76 1.39 2.76.38 0 1.13-.24.75-.23.98-.23.52 0 .52.59 0 .47-1.23.94-1.22.47-2.51.47-1.29 0-2.02-1t-.73-2.64Z"></path><rect width="8.24" height="15.85" x="-4.12" y="-7.92" fill="none" rx="0" ry="0" transform="translate(178.39 552.12)"></rect><path fill="#444" d="m203.45 559.315-1.09.02q-1.66 0-2.06-.51-.17-.23-.17-.55 0-.33.25-.45.25-.13.56-.14.32-.02.57-.2.25-.18.25-.59l.02-3.7q0-2.33-.56-3.44-.61-1.24-2.54-1.24-2.03 0-2.85 1.28-.73 1.2-.73 3.47v3.63q0 .74.82.78.82.04.82.65 0 .7-.78.87-.56.12-1.59.12l-1.09.02q-1.66 0-2.05-.51-.18-.23-.18-.55 0-.33.25-.45.26-.13.57-.14.31-.02.56-.2.26-.18.26-.59v-13.83q0-.73-.92-.88-.63-.11-.77-.23-.13-.12-.13-.4t.27-.5q.26-.23.7-.35.76-.2 1.7-.2 1.57 0 1.57.95v7.38q1.73-1.96 4.37-1.96t3.67 1.35q1.04 1.36 1.04 4.1l-.01 4.57q0 .74.81.78.82.04.82.65 0 .7-.76.87-.58.12-1.6.12"></path><rect width="14.94" height="18.83" x="-7.47" y="-9.41" fill="none" rx="0" ry="0" transform="translate(198.84 550.42)"></rect><path fill="#444" d="M216.43 551.265h-.24q-.24 0-.83-.37t-.59-.98q0-.6.35-1.13.34-.54.89-.87.54-.34 1.26-.57 1.33-.42 2.85-.42 2.56 0 3.72 1.14 1.17 1.14 1.17 3.75l-.02 3.75q0 1.35.35 1.7.09.09.56.23 1.29.4 1.29.62 0 1.33-2.73 1.33-1.03 0-1.34-.46-.31-.45-.34-1.66-.57 1.03-1.73 1.66-1.17.64-2.51.64-1.33 0-2.26-.34-.92-.35-1.5-1.12-.58-.76-.58-1.65 0-.89.21-1.43.2-.54.5-.91.31-.37.84-.66.52-.29.98-.46.46-.17 1.18-.31 1.07-.21 1.79-.29.72-.08.75-.09.07-.02.87-.1.79-.08 1.25-.33 0-2.42-.65-3.15-.57-.64-1.88-.64t-1.96.67q-.65.66-.65 2.11l.01.28q-.53.06-1.01.06m6.14 1.81q-.86.32-1.95.44-1.09.12-1.71.28-.62.17-1.04.41-.96.56-.96 1.91 0 2.19 2.54 2.19 2.19 0 2.78-2.1.34-1.19.34-3.13"></path><rect width="12.99" height="12.7" x="-6.5" y="-6.35" fill="none" rx="0" ry="0" transform="translate(221.2 553.77)"></rect><path fill="#444" d="m236.47 548.805-.78.01q-.47 0-.68-.08-.22-.09-.22-.38 0-.28.25-.52.25-.23.56-.36.88-.36 1.05-.6.17-.25.52-1.09.85-2.09 1.42-2.09.29 0 .33.62.05.63.06.96 0 .33-.01.99-.01.65-.01.9l3.02.02q.44 0 .75.22.3.22.3.59t-.3.57q-.3.2-.74.2h-3.03l-.02 6.49q0 2.76 1.39 2.76.38 0 1.13-.24.75-.23.97-.23.53 0 .53.59 0 .47-1.23.94-1.22.47-2.51.47-1.29 0-2.02-1t-.73-2.64Z"></path><rect width="8.24" height="15.85" x="-4.12" y="-7.92" fill="none" rx="0" ry="0" transform="translate(239.41 552.12)"></rect><path fill="#444" d="M269.1 558.165q2.86 0 2.86-1.75 0-1.32-2.58-2.07-.48-.14-1.17-.33-1.28-.35-1.72-.52-1.12-.44-1.89-1.26-.78-.83-.78-1.96 0-1.46 1.39-2.42t3.36-.96q1.92 0 3.59.69.83.35 1.34.96.52.6.52 1.26 0 .67-.53 1.06t-1.09.39q-.57 0-.75-.11-.19-.1-.19-.5 0-2.45-2.6-2.45-1.08 0-1.88.48-.8.47-.8 1.24 0 1.19 2.49 1.89.39.1.95.25.56.14 1.03.29.47.14.99.34.51.2 1.08.51.57.32.93.69.82.84.82 2.03 0 1.18-.8 2.05-1.58 1.68-4.57 1.68-1.94 0-3.58-.63-.84-.33-1.34-.92-.51-.58-.51-1.24t.42-1.02q.42-.36.95-.36t.91.33q.37.33.37.82 0 .48-.09 1.04 1.35.5 2.87.5"></path><rect width="10.8" height="12.75" x="-5.4" y="-6.38" fill="none" rx="0" ry="0" transform="translate(269.57 553.77)"></rect><path fill="#444" d="M294.71 553.465q0-2.93-1.7-4.26-.89-.69-2.12-.69-3.65 0-3.65 4.1v4.18q1.03 1.33 3.54 1.33 1.83 0 2.88-1.31 1.05-1.32 1.05-3.35m-8.19 11.06-1.09.01q-1.67 0-2.06-.51-.18-.22-.18-.55 0-.32.26-.45.25-.13.56-.14.31-.01.57-.2.25-.18.25-.59v-11.45q0-.91-.13-1.26-.14-.35-.61-.53-.05-.02-.5-.12-.96-.23-.96-.64 0-.99 2.56-.99 1.07 0 1.51.25.43.26.43 1.1 0 .25-.01.38.97-.95 1.96-1.45.99-.49 2.53-.49 1.54 0 2.87.86 1.34.86 2.03 2.28.69 1.41.69 3.15 0 2.76-1.81 4.55-1.8 1.79-4.58 1.79-1.56 0-3.57-1.03v3.6q0 .74.82.78.82.05.82.66 0 .7-.77.86-.56.13-1.59.13"></path><rect width="14.57" height="17.64" x="-7.29" y="-8.82" fill="none" rx="0" ry="0" transform="translate(290.42 556.22)"></rect><path fill="#444" d="m306.76 557.935-.88-.86q-.88-.87-.88-3.72 0-2.86 1.77-4.64 1.77-1.79 4.51-1.79 2.18 0 3.67 1.41 1.49 1.4 1.49 3.52 0 1.03-1.63 1.03h-7.35q.03 2.05 1.34 3.46 1.3 1.41 3.3 1.41 1.32 0 2.56-.77.66-.41.85-.41.18 0 .41.19.24.18.24.45 0 .69-.9 1.28-.89.6-1.97.88-1.08.29-1.89.29-2.88 0-4.64-1.73m7.34-6.39q-.02-1.46-.76-2.37-.73-.91-2.15-.91t-2.48 1.01q-1.06 1.02-1.12 2.32h2.97q1.98 0 3.54-.05"></path><rect width="11.44" height="12.74" x="-5.72" y="-6.37" fill="none" rx="0" ry="0" transform="translate(311.22 553.8)"></rect><path fill="#444" d="M327.18 551.265h-.23q-.24 0-.83-.37t-.59-.98q0-.6.34-1.13.34-.54.89-.87.54-.34 1.27-.57 1.32-.42 2.84-.42 2.57 0 3.73 1.14 1.16 1.14 1.16 3.75l-.01 3.75q0 1.35.34 1.7.09.09.56.23 1.29.4 1.29.62 0 1.33-2.73 1.33-1.03 0-1.34-.46-.31-.45-.33-1.66-.57 1.03-1.74 1.66-1.17.64-2.5.64-1.34 0-2.26-.34-.93-.35-1.51-1.12-.57-.76-.57-1.65 0-.89.2-1.43.2-.54.51-.91.3-.37.83-.66.52-.29.98-.46.46-.17 1.18-.31 1.07-.21 1.79-.29.73-.08.75-.09.08-.02.87-.1t1.25-.33q0-2.42-.65-3.15-.57-.64-1.87-.64-1.31 0-1.97.67-.65.66-.65 2.11l.01.28q-.53.06-1.01.06m6.14 1.81q-.86.32-1.95.44-1.08.12-1.7.28-.63.17-1.05.41-.96.56-.96 1.91 0 2.19 2.54 2.19 2.19 0 2.78-2.1.34-1.19.34-3.13"></path><rect width="12.98" height="12.7" x="-6.49" y="-6.35" fill="none" rx="0" ry="0" transform="translate(331.95 553.77)"></rect><path fill="#444" d="m349.86 559.315-1.09.02q-1.66 0-2.06-.51-.18-.23-.18-.55 0-.33.26-.45.25-.13.56-.14.31-.02.57-.2.25-.18.25-.59v-13.41q0-1.15-.9-1.24-.09-.01-.23-.03-.14-.01-.2-.02-.06 0-.16-.02-.09-.02-.14-.05-.04-.02-.09-.06-.09-.06-.09-.36t.38-.62q.72-.58 1.93-.58 1.28 0 1.5.15.43.31.43.8v11.11q.47-.36 2.18-1.6 3.38-2.44 3.38-2.67 0-.29-.97-.59.04-1.16 2.14-1.16h1.72q3.2 0 3.2.36 0 .16-.36.52-.36.37-.74.58-.84 0-1.93.57-1.08.57-2.67 1.76l-2.19 1.62 3.98 4.22q.73.74 1.32 1.14.59.4 1.08.52.5.13.74.18.25.06.37.08.11.03.29.1t.26.15q.22.2.22.49 0 .61-1.97.61h-.61q-1.2 0-1.65-.11-.45-.11-.96-.59-1.89-1.79-4.69-5.79l-2.16 1.46v2.48q0 .74.82.78.82.04.82.65 0 .7-.76.87-.58.12-1.6.12"></path><rect width="16.26" height="18.94" x="-8.13" y="-9.47" fill="none" rx="0" ry="0" transform="translate(354.99 550.48)"></rect><path fill="#444" d="M376.38 558.165q2.86 0 2.86-1.75 0-1.32-2.58-2.07-.48-.14-1.17-.33-1.28-.35-1.73-.52-1.11-.44-1.89-1.26-.77-.83-.77-1.96 0-1.46 1.39-2.42t3.36-.96q1.91 0 3.59.69.82.35 1.34.96.51.6.51 1.26 0 .67-.52 1.06-.53.39-1.1.39-.56 0-.75-.11-.18-.1-.18-.5 0-2.45-2.6-2.45-1.08 0-1.88.48-.8.47-.8 1.24 0 1.19 2.49 1.89.39.1.95.25.56.14 1.03.29.47.14.98.34.52.2 1.09.51.57.32.92.69.83.84.83 2.03 0 1.18-.8 2.05-1.59 1.68-4.57 1.68-1.94 0-3.58-.63-.84-.33-1.35-.92-.5-.58-.5-1.24t.41-1.02q.42-.36.96-.36.53 0 .9.33.38.33.38.82 0 .48-.09 1.04 1.35.5 2.87.5"></path><rect width="10.8" height="12.75" x="-5.4" y="-6.38" fill="none" rx="0" ry="0" transform="translate(376.85 553.77)"></rect><path fill="#444" d="M394.68 557.925v.3q0 .29-.39.75t-1.08.46q-.68 0-1.09-.45-.41-.45-.41-1.05 0-.6.38-1.02.37-.43 1.08-.43.71 0 1.11.42.4.42.4 1.02m.07-13.13-.98 7.45q-.1.98-.22 1.21-.11.24-.27.24-.16 0-.23-.04t-.12-.13q-.05-.1-.08-.18-.03-.08-.05-.24-.02-.16-.03-.26-.02-.1-.04-.3-.01-.2-.03-.3l-.97-7.45q-.03-.33-.03-.48 0-.89.46-1.39.45-.49 1.08-.49.62 0 1.08.5.45.5.45 1.38 0 .32-.02.48"></path><rect width="3.07" height="17" x="-1.53" y="-8.5" fill="none" rx="0" ry="0" transform="translate(393.74 551.43)"></rect><path fill="#444" d="M296.658 187.483c-5.455 0-10.747.847-15.787 2.459a51.917 51.917 0 0 0-15.787-2.459c-5.455 0-10.748.855-15.796 2.467a51.713 51.713 0 0 0-15.787-2.467c-5.455 0-10.747.855-15.787 2.459a52.01 52.01 0 0 0-15.796-2.459 52.01 52.01 0 0 0-15.795 2.459 52.01 52.01 0 0 0-15.796-2.459c-34.082 0-61.822 33.407-61.822 74.459s27.74 74.458 61.83 74.458a52.01 52.01 0 0 0 15.796-2.459 52.01 52.01 0 0 0 15.795 2.46 52.01 52.01 0 0 0 15.796-2.46 51.917 51.917 0 0 0 15.787 2.46 51.71 51.71 0 0 0 15.787-2.468 51.765 51.765 0 0 0 15.796 2.467c5.455 0 10.747-.855 15.787-2.459a51.67 51.67 0 0 0 15.788 2.46c34.098 0 61.83-33.407 61.83-74.46s-27.74-74.458-61.839-74.458m-31.574 4.014c3.208 0 6.35.318 9.412.936a56.81 56.81 0 0 0-9.412 5.52 57.215 57.215 0 0 0-9.42-5.52 47.575 47.575 0 0 1 9.42-.936m-57.825 70.445c0-14.998 3.868-28.913 10.455-40.352 6.587 11.44 10.446 25.354 10.446 40.352s-3.868 28.92-10.446 40.36c-6.595-11.44-10.455-25.363-10.455-40.36m8.085 44.186c-3.81 5.74-8.337 10.748-13.426 14.794-15.795-12.58-26.25-34.326-26.25-58.989 0-24.662 10.455-46.393 26.25-58.98 5.089 4.046 9.616 9.046 13.426 14.794-7.604 12.368-12.099 27.658-12.099 44.178s4.503 31.827 12.1 44.187Zm16.83-44.186c0-16.52-4.503-31.82-12.091-44.179 3.802-5.748 8.33-10.755 13.418-14.802 5.089 4.047 9.616 9.054 13.426 14.802-7.596 12.368-12.09 27.658-12.09 44.179s4.502 31.827 12.09 44.186c-3.81 5.74-8.337 10.748-13.426 14.794-5.08-4.046-9.616-9.054-13.426-14.802 7.604-12.368 12.099-27.658 12.099-44.178m6.668 0c0-14.998 3.868-28.913 10.454-40.352 6.587 11.44 10.447 25.354 10.447 40.352s-3.868 28.92-10.447 40.36c-6.595-11.44-10.454-25.363-10.454-40.36m24.915 0c0-16.52-4.503-31.82-12.091-44.179 3.802-5.748 8.33-10.755 13.418-14.802 15.795 12.587 26.241 34.335 26.241 58.989s-10.446 46.401-26.241 58.989c-5.08-4.047-9.616-9.054-13.426-14.803 7.604-12.367 12.099-27.658 12.099-44.178Zm-14.469-67.774c4.397 1.514 8.574 3.655 12.482 6.334-4.657 3.851-8.858 8.443-12.482 13.646-3.615-5.195-7.816-9.795-12.481-13.646 3.908-2.679 8.085-4.82 12.481-6.334m-15.787-2.671c3.208 0 6.35.318 9.42.936a56.81 56.81 0 0 0-9.412 5.52 57.215 57.215 0 0 0-9.42-5.52 47.433 47.433 0 0 1 9.412-.936m-3.306 9.013c-4.657 3.843-8.858 8.435-12.481 13.638-3.624-5.195-7.825-9.795-12.49-13.646 3.908-2.679 8.093-4.812 12.49-6.334 4.396 1.522 8.573 3.655 12.481 6.342m-28.277-9.013c3.208 0 6.35.318 9.42.936a56.55 56.55 0 0 0-9.42 5.52 57.215 57.215 0 0 0-9.42-5.52 47.575 47.575 0 0 1 9.42-.936m-3.305 9.013c-16.26 13.418-26.95 35.955-26.95 61.432 0 25.476 10.69 48.013 26.95 61.431-3.909 2.687-8.085 4.828-12.482 6.343-24.239-8.387-42.03-35.597-42.03-67.774 0-32.178 17.791-59.388 42.03-67.774 4.397 1.522 8.573 3.655 12.482 6.342m-28.278 131.876c-31.876 0-57.824-31.599-57.824-70.444 0-38.846 25.948-70.445 57.824-70.445 3.208 0 6.351.318 9.42.936-23.18 10.748-39.675 37.852-39.675 69.509s16.495 58.76 39.676 69.508c-3.07.619-6.213.936-9.42.936m31.583 0a47.56 47.56 0 0 1-9.42-.936c3.29-1.515 6.432-3.37 9.42-5.52a56.88 56.88 0 0 0 9.42 5.52 47.56 47.56 0 0 1-9.42.936m3.306-9.005c4.657-3.851 8.858-8.443 12.49-13.646 3.615 5.195 7.816 9.795 12.481 13.638-3.908 2.687-8.085 4.828-12.481 6.343-4.397-1.515-8.582-3.656-12.49-6.335m28.277 9.005a47.42 47.42 0 0 1-9.412-.936c3.29-1.515 6.432-3.37 9.42-5.52a57.143 57.143 0 0 0 9.412 5.52 47.56 47.56 0 0 1-9.42.936m3.306-9.005c4.657-3.851 8.858-8.443 12.481-13.646 3.615 5.195 7.817 9.795 12.482 13.646-3.908 2.679-8.085 4.82-12.482 6.335-4.396-1.515-8.573-3.656-12.481-6.335m28.277 9.005c-3.208 0-6.351-.317-9.42-.936a56.892 56.892 0 0 0 9.42-5.52 57.143 57.143 0 0 0 9.412 5.52 47.433 47.433 0 0 1-9.412.936m15.779-2.67c-4.397-1.515-8.574-3.656-12.482-6.335 16.268-13.426 26.95-35.963 26.95-61.44 0-25.476-10.682-48.013-26.95-61.439 3.908-2.679 8.085-4.812 12.482-6.334 24.239 8.386 42.037 35.605 42.037 67.774s-17.806 59.387-42.037 67.774m15.795 2.67c-3.207 0-6.35-.317-9.42-.936 23.189-10.74 39.684-37.852 39.684-69.508s-16.504-58.77-39.692-69.509a47.575 47.575 0 0 1 9.42-.936c31.884 0 57.825 31.607 57.825 70.445 0 38.837-25.94 70.444-57.825 70.444Z"></path></svg></svg>