<svg width="306" height="282" viewBox="0 0 306 282" fill="none" xmlns="http://www.w3.org/2000/svg">
<path fill-rule="evenodd" clip-rule="evenodd" d="M294.006 222C301.729 202.895 306 181.894 306 159.851C306 71.5676 237.5 0 153 0C68.5004 0 0 71.5676 0 159.851C0 181.894 4.27056 202.895 11.9944 222H294.006Z" fill="#707070"/>
<path d="M150.059 221.5C150.059 254.517 129.021 280.75 103.654 280.75C78.2875 280.75 57.25 254.517 57.25 221.5C57.25 188.483 78.2875 162.25 103.654 162.25C129.021 162.25 150.059 188.483 150.059 221.5Z" stroke="#444444" stroke-width="2.5"/>
<path d="M197.713 221.5C197.713 254.517 176.675 280.75 151.309 280.75C125.942 280.75 104.904 254.517 104.904 221.5C104.904 188.483 125.942 162.25 151.309 162.25C176.675 162.25 197.713 188.483 197.713 221.5Z" stroke="#444444" stroke-width="2.5"/>
<path d="M221.54 221.5C221.54 254.517 200.503 280.75 175.136 280.75C149.769 280.75 128.731 254.517 128.731 221.5C128.731 188.483 149.769 162.25 175.136 162.25C200.503 162.25 221.54 188.483 221.54 221.5Z" stroke="#444444" stroke-width="2.5"/>
<path d="M173.886 221.5C173.886 254.517 152.848 280.75 127.481 280.75C102.115 280.75 81.0772 254.517 81.0772 221.5C81.0772 188.483 102.115 162.25 127.481 162.25C152.848 162.25 173.886 188.483 173.886 221.5Z" stroke="#444444" stroke-width="2.5"/>
<path d="M247.75 221.5C247.75 254.517 226.713 280.75 201.346 280.75C175.979 280.75 154.941 254.517 154.941 221.5C154.941 188.483 175.979 162.25 201.346 162.25C226.713 162.25 247.75 188.483 247.75 221.5Z" stroke="#444444" stroke-width="2.5"/>
</svg>
