<svg width="6400" height="2426" viewBox="0 0 6400 2426" fill="none" xmlns="http://www.w3.org/2000/svg">
<path d="M617.5 622.5C617.5 661.5 627 695.5 646 724.5C666 753.5 690 778.5 718 799.5C746 819.5 784 843.5 832 871.5C882 899.5 922 925 952 948C983 970 1009 997.5 1030 1030.5C1051 1063.5 1061.5 1102 1061.5 1146C1061.5 1195 1049.5 1239 1025.5 1278C1001.5 1317 966 1348 919 1371C873 1393 818 1404 754 1404C674 1404 602.5 1386.5 539.5 1351.5C534.5 1348.5 531 1344.5 529 1339.5C527 1334.5 525.5 1329 524.5 1323L505 1119C504 1115 506.5 1112.5 512.5 1111.5C518.5 1110.5 522 1112 523 1116C537 1186 566.5 1247.5 611.5 1300.5C656.5 1353.5 715.5 1380 788.5 1380C838.5 1380 880.5 1366.5 914.5 1339.5C948.5 1311.5 965.5 1267.5 965.5 1207.5C965.5 1162.5 955 1123.5 934 1090.5C914 1056.5 889 1028.5 859 1006.5C830 983.5 791.5 958 743.5 930C696.5 902 658.5 877.5 629.5 856.5C601.5 834.5 577.5 808 557.5 777C538.5 745 529 708 529 666C529 616 542 573.5 568 538.5C595 502.5 629.5 476 671.5 459C714.5 441 760 432 808 432C868 432 927 444 985 468C1001 474 1009 482.5 1009 493.5L1018 666C1018 670 1015 672.5 1009 673.5C1004 673.5 1001 671.5 1000 667.5C996 636.5 986 605 970 573C954 540 930 512 898 489C867 466 829 454.5 784 454.5C728 454.5 686 471 658 504C631 536 617.5 575.5 617.5 622.5ZM1862.64 1270.5C1863.64 1269.5 1865.14 1269 1867.14 1269C1871.14 1269 1874.64 1271 1877.64 1275C1881.64 1278 1882.64 1280.5 1880.64 1282.5C1848.64 1323.5 1820.64 1353.5 1796.64 1372.5C1773.64 1390.5 1749.64 1399.5 1724.64 1399.5C1667.64 1399.5 1640.14 1360 1642.14 1281L1643.64 1014C1644.64 902 1614.64 846 1553.64 846C1515.64 846 1481.14 866.5 1450.14 907.5C1419.14 948.5 1394.14 1009 1375.14 1089C1356.14 1169 1345.64 1264.5 1343.64 1375.5C1343.64 1390.5 1327.64 1398 1295.64 1398C1280.64 1398 1270.64 1397 1265.64 1395C1260.64 1394 1257.64 1392 1256.64 1389L1258.14 1353L1259.64 1275L1270.14 457.5C1270.14 410.5 1253.64 387 1220.64 387C1202.64 387 1177.14 394.5 1144.14 409.5H1141.14C1137.14 409.5 1134.64 407.5 1133.64 403.5C1131.64 398.5 1132.14 395 1135.14 393L1331.64 298.5H1334.64C1337.64 298.5 1341.14 300 1345.14 303C1349.14 306 1351.14 308.5 1351.14 310.5L1345.14 1123.5C1364.14 1018.5 1395.14 936.5 1438.14 877.5C1482.14 817.5 1535.14 787.5 1597.14 787.5C1641.14 787.5 1673.64 803.5 1694.64 835.5C1716.64 867.5 1727.14 917.5 1726.14 985.5L1724.64 1252.5C1724.64 1282.5 1728.14 1304.5 1735.14 1318.5C1742.14 1332.5 1753.14 1339.5 1768.14 1339.5C1793.14 1339.5 1824.64 1316.5 1862.64 1270.5ZM2173.7 1407C2121.7 1407 2076.2 1394.5 2037.2 1369.5C1999.2 1343.5 1969.7 1308.5 1948.7 1264.5C1927.7 1220.5 1917.2 1171 1917.2 1116C1917.2 1054 1929.7 998 1954.7 948C1979.7 898 2014.2 859 2058.2 831C2103.2 802 2154.2 787.5 2211.2 787.5C2287.2 787.5 2348.7 813 2395.7 864C2443.7 914 2467.7 983.5 2467.7 1072.5C2467.7 1140.5 2454.2 1200 2427.2 1251C2400.2 1302 2364.2 1341 2319.2 1368C2274.2 1394 2225.7 1407 2173.7 1407ZM2218.7 1369.5C2267.7 1369.5 2308.2 1349 2340.2 1308C2372.2 1267 2388.2 1211.5 2388.2 1141.5C2388.2 1087.5 2378.7 1036 2359.7 987C2341.7 938 2315.7 898.5 2281.7 868.5C2248.7 838.5 2211.2 823.5 2169.2 823.5C2120.2 823.5 2079.2 843.5 2046.2 883.5C2013.2 923.5 1996.7 978.5 1996.7 1048.5C1996.7 1101.5 2006.2 1153 2025.2 1203C2044.2 1252 2070.7 1292 2104.7 1323C2138.7 1354 2176.7 1369.5 2218.7 1369.5ZM2783.84 1387.5C2759.84 1387.5 2732.84 1386 2702.84 1383V1653C2702.84 1688 2707.84 1712 2717.84 1725C2727.84 1739 2746.34 1746 2773.34 1746C2780.34 1746 2793.84 1745 2813.84 1743H2815.34C2818.34 1743 2820.34 1745.5 2821.34 1750.5C2822.34 1755.5 2820.84 1758.5 2816.84 1759.5L2540.84 1798.5C2536.84 1799.5 2533.84 1797 2531.84 1791C2530.84 1785 2532.34 1781.5 2536.34 1780.5C2560.34 1776.5 2577.34 1771 2587.34 1764C2598.34 1758 2605.34 1748 2608.34 1734C2612.34 1720 2614.34 1696.5 2614.34 1663.5L2615.84 951C2610.84 954 2589.34 971 2551.34 1002L2548.34 1003.5C2544.34 1003.5 2540.84 1001.5 2537.84 997.5C2534.84 993.5 2534.34 990.5 2536.34 988.5C2553.34 972.5 2579.84 949.5 2615.84 919.5V807C2615.84 805 2622.34 798 2635.34 786C2648.34 774 2659.84 761 2669.84 747C2679.84 733 2684.84 717 2684.84 699C2684.84 695 2687.84 693 2693.84 693C2699.84 693 2702.84 695 2702.84 699V861C2776.84 818 2847.34 796.5 2914.34 796.5C2977.34 796.5 3025.84 815.5 3059.84 853.5C3093.84 891.5 3110.84 947 3110.84 1020C3110.84 1088 3097.34 1150 3070.34 1206C3043.34 1262 3004.84 1306.5 2954.84 1339.5C2905.84 1371.5 2848.84 1387.5 2783.84 1387.5ZM2854.34 850.5C2805.34 850.5 2754.84 865 2702.84 894V1320C2745.84 1337 2787.34 1345.5 2827.34 1345.5C2900.34 1345.5 2951.84 1322 2981.84 1275C3012.84 1228 3028.34 1162.5 3028.34 1078.5C3028.34 926.5 2970.34 850.5 2854.34 850.5ZM3437.16 1387.5C3413.16 1387.5 3386.16 1386 3356.16 1383V1653C3356.16 1688 3361.16 1712 3371.16 1725C3381.16 1739 3399.66 1746 3426.66 1746C3433.66 1746 3447.16 1745 3467.16 1743H3468.66C3471.66 1743 3473.66 1745.5 3474.66 1750.5C3475.66 1755.5 3474.16 1758.5 3470.16 1759.5L3194.16 1798.5C3190.16 1799.5 3187.16 1797 3185.16 1791C3184.16 1785 3185.66 1781.5 3189.66 1780.5C3213.66 1776.5 3230.66 1771 3240.66 1764C3251.66 1758 3258.66 1748 3261.66 1734C3265.66 1720 3267.66 1696.5 3267.66 1663.5L3269.16 951C3264.16 954 3242.66 971 3204.66 1002L3201.66 1003.5C3197.66 1003.5 3194.16 1001.5 3191.16 997.5C3188.16 993.5 3187.66 990.5 3189.66 988.5C3206.66 972.5 3233.16 949.5 3269.16 919.5V807C3269.16 805 3275.66 798 3288.66 786C3301.66 774 3313.16 761 3323.16 747C3333.16 733 3338.16 717 3338.16 699C3338.16 695 3341.16 693 3347.16 693C3353.16 693 3356.16 695 3356.16 699V861C3430.16 818 3500.66 796.5 3567.66 796.5C3630.66 796.5 3679.16 815.5 3713.16 853.5C3747.16 891.5 3764.16 947 3764.16 1020C3764.16 1088 3750.66 1150 3723.66 1206C3696.66 1262 3658.16 1306.5 3608.16 1339.5C3559.16 1371.5 3502.16 1387.5 3437.16 1387.5ZM3507.66 850.5C3458.66 850.5 3408.16 865 3356.16 894V1320C3399.16 1337 3440.66 1345.5 3480.66 1345.5C3553.66 1345.5 3605.16 1322 3635.16 1275C3666.16 1228 3681.66 1162.5 3681.66 1078.5C3681.66 926.5 3623.66 850.5 3507.66 850.5ZM4055.98 1399.5C4027.98 1399.5 4006.48 1389.5 3991.48 1369.5C3977.48 1349.5 3970.98 1320 3971.98 1281L3976.48 940.5C3977.48 881.5 3962.98 852 3932.98 852C3908.98 852 3875.48 876 3832.48 924C3830.48 926 3828.98 927 3827.98 927C3823.98 927 3820.48 925.5 3817.48 922.5C3814.48 918.5 3813.98 915 3815.98 912C3845.98 872 3873.98 842.5 3899.98 823.5C3925.98 803.5 3952.98 793.5 3980.98 793.5C4008.98 793.5 4029.48 803 4042.48 822C4055.48 841 4061.98 870 4061.98 909L4057.48 1252.5C4057.48 1310.5 4071.48 1339.5 4099.48 1339.5C4124.48 1339.5 4156.48 1316.5 4195.48 1270.5C4196.48 1269.5 4197.98 1269 4199.98 1269C4203.98 1269 4207.48 1271 4210.48 1275C4214.48 1278 4215.48 1280.5 4213.48 1282.5C4182.48 1322.5 4154.98 1352 4130.98 1371C4106.98 1390 4081.98 1399.5 4055.98 1399.5ZM4003.48 618C3982.48 618 3965.98 612.5 3953.98 601.5C3941.98 589.5 3935.98 573 3935.98 552C3935.98 533 3941.98 518 3953.98 507C3965.98 496 3982.48 490.5 4003.48 490.5C4022.48 490.5 4037.48 496 4048.48 507C4060.48 518 4066.48 533 4066.48 552C4066.48 573 4060.98 589.5 4049.98 601.5C4038.98 612.5 4023.48 618 4003.48 618ZM4661.63 1279.5C4664.63 1279.5 4667.63 1281.5 4670.63 1285.5C4673.63 1288.5 4674.13 1291 4672.13 1293C4630.13 1332 4592.13 1360.5 4558.13 1378.5C4525.13 1395.5 4491.63 1404 4457.63 1404C4419.63 1404 4388.13 1394 4363.13 1374C4338.13 1354 4326.13 1321.5 4327.13 1276.5L4328.63 927C4327.63 901 4325.63 882.5 4322.63 871.5C4319.63 860.5 4313.13 853.5 4303.13 850.5C4294.13 846.5 4278.13 844.5 4255.13 844.5C4251.13 844.5 4248.63 841.5 4247.63 835.5C4247.63 829.5 4249.63 826.5 4253.63 826.5C4291.63 826.5 4322.13 816 4345.13 795C4369.13 773 4383.13 745 4387.13 711C4387.13 708 4391.13 706.5 4399.13 706.5C4409.13 706.5 4414.13 708 4414.13 711V822C4451.13 821 4520.63 817.5 4622.63 811.5C4626.63 811.5 4629.63 813 4631.63 816C4634.63 818 4636.13 821 4636.13 825C4635.13 835 4629.63 846 4619.63 858C4610.63 870 4600.13 875 4588.13 873C4519.13 864 4461.13 859 4414.13 858L4412.63 1230C4412.63 1271 4419.63 1301 4433.63 1320C4448.63 1338 4474.63 1347 4511.63 1347C4539.63 1347 4565.13 1341.5 4588.13 1330.5C4611.13 1318.5 4635.13 1301.5 4660.13 1279.5H4661.63Z" fill="black"/>
<path d="M646.475 2244.45C672.109 2244.45 684.927 2236.59 684.927 2220.86C684.927 2209.02 673.363 2199.73 650.234 2193.01C645.905 2191.75 640.664 2190.27 634.512 2188.56C623.005 2185.49 615.257 2183.15 611.27 2181.56C601.243 2177.68 592.756 2172.04 585.806 2164.64C578.856 2157.23 575.381 2148.46 575.381 2138.32C575.381 2125.22 581.59 2114.34 594.009 2105.68C606.541 2097.02 621.637 2092.69 639.297 2092.69C656.501 2092.69 672.622 2095.82 687.661 2102.09C695.067 2105.17 701.048 2109.44 705.605 2114.91C710.277 2120.38 712.612 2126.07 712.612 2132C712.612 2137.92 710.22 2142.65 705.435 2146.18C700.763 2149.71 695.864 2151.48 690.737 2151.48C685.724 2151.48 682.363 2151.02 680.654 2150.11C679.059 2149.09 678.262 2146.81 678.262 2143.28C678.262 2121.29 666.584 2110.29 643.228 2110.29C633.543 2110.29 625.112 2112.46 617.935 2116.79C610.757 2121 607.168 2126.53 607.168 2133.36C607.168 2144.07 618.333 2152.56 640.664 2158.83C644.196 2159.74 648.468 2160.88 653.481 2162.25C658.494 2163.5 663.109 2164.81 667.324 2166.18C671.54 2167.43 675.926 2168.97 680.483 2170.79C685.155 2172.5 690.054 2174.78 695.181 2177.63C700.308 2180.48 704.466 2183.55 707.656 2186.86C715.062 2194.38 718.765 2203.49 718.765 2214.2C718.765 2224.79 715.176 2233.97 707.998 2241.71C693.757 2256.87 673.249 2264.44 646.475 2264.44C629.043 2264.44 612.979 2261.6 598.281 2255.9C590.762 2252.94 584.723 2248.83 580.166 2243.59C575.609 2238.35 573.33 2232.77 573.33 2226.85C573.33 2220.92 575.21 2216.36 578.97 2213.17C582.729 2209.87 587.002 2208.22 591.787 2208.22C596.572 2208.22 600.617 2209.7 603.921 2212.66C607.339 2215.62 609.048 2219.33 609.048 2223.77C609.048 2228.1 608.649 2232.77 607.852 2237.78C619.928 2242.23 632.803 2244.45 646.475 2244.45ZM829.268 2118.5L818.843 2118.67C814.627 2118.67 811.551 2118.27 809.614 2117.47C807.677 2116.67 806.709 2115.02 806.709 2112.51C806.709 2109.89 807.791 2107.56 809.956 2105.51C812.235 2103.34 814.798 2101.69 817.646 2100.55C825.508 2097.36 830.179 2094.68 831.66 2092.52C833.255 2090.24 835.591 2085.34 838.667 2077.82C846.3 2059.02 852.681 2049.62 857.808 2049.62C860.428 2049.62 861.909 2052.47 862.251 2058.17C862.707 2063.75 862.935 2068.02 862.935 2070.99C863.049 2073.95 863.049 2078.39 862.935 2084.32C862.821 2090.13 862.764 2094.17 862.764 2096.45L903.438 2096.62C907.425 2096.62 910.786 2097.65 913.521 2099.7C916.255 2101.63 917.622 2104.25 917.622 2107.56C917.622 2110.86 916.255 2113.43 913.521 2115.25C910.9 2117.07 907.596 2117.98 903.608 2117.98H862.764L862.593 2205.31C862.593 2230.04 868.802 2242.4 881.221 2242.4C884.639 2242.4 889.709 2241.37 896.431 2239.32C903.153 2237.16 907.539 2236.07 909.59 2236.07C914.261 2236.07 916.597 2238.75 916.597 2244.11C916.597 2248.32 911.071 2252.54 900.02 2256.75C889.082 2260.97 877.803 2263.08 866.182 2263.08C854.674 2263.08 845.617 2258.58 839.009 2249.58C832.515 2240.57 829.268 2228.73 829.268 2214.03V2118.5ZM1102.98 2224.97C1131.8 2164.01 1146.22 2131.83 1146.22 2128.41C1146.22 2124.99 1144.96 2122.6 1142.46 2121.23C1139.95 2119.86 1137.22 2119.07 1134.25 2118.84C1126.28 2118.04 1122.29 2115.7 1122.29 2111.83C1122.29 2101.46 1134.54 2096.28 1159.03 2096.28H1165.87C1176.81 2096.28 1184.61 2098.05 1189.28 2101.58C1194.07 2105.11 1196.46 2108.41 1196.46 2111.49C1196.46 2114.57 1194.75 2116.45 1191.33 2117.13C1184.27 2118.38 1178.97 2120.38 1175.44 2123.11C1172.02 2125.73 1168.66 2130.63 1165.36 2137.81C1162.05 2144.99 1156.53 2157.23 1148.78 2174.55C1141.03 2191.87 1134.54 2206 1129.3 2216.93L1092.55 2292.47C1088.68 2300.67 1083.67 2307.45 1077.51 2312.81C1071.48 2318.28 1064.3 2321.01 1055.98 2321.01C1047.66 2321.01 1040.37 2318.9 1034.11 2314.69C1027.95 2310.59 1024.88 2305.23 1024.88 2298.62C1024.88 2292.13 1026.81 2286.94 1030.69 2283.07C1034.68 2279.31 1039.63 2277.43 1045.56 2277.43C1051.48 2277.43 1056.78 2278.91 1061.45 2281.88C1066.24 2284.84 1068.74 2288.48 1068.97 2292.81C1078.08 2278.34 1084.18 2267.06 1087.26 2258.97C1082.47 2245.76 1071.53 2222.63 1054.44 2189.59C1037.47 2156.44 1028.07 2137.98 1026.25 2134.22C1024.42 2130.35 1022.83 2127.67 1021.46 2126.19C1020.21 2124.71 1018.55 2123.45 1016.5 2122.43C1014.45 2121.4 1012.74 2120.66 1011.38 2120.21C1010.01 2119.75 1007.79 2119.12 1004.71 2118.33C1001.64 2117.53 999.186 2116.84 997.363 2116.27C995.426 2115.7 994.458 2113.94 994.458 2110.98C994.458 2101.18 1007.9 2096.28 1034.79 2096.28C1051.31 2096.28 1061.91 2097.13 1066.58 2098.84C1075.58 2102.03 1080.08 2106.25 1080.08 2111.49C1080.08 2115.02 1076.66 2117.47 1069.82 2118.84C1063.1 2120.09 1059.74 2122.54 1059.74 2126.19C1059.74 2126.64 1061.74 2132.05 1065.72 2142.42C1078.82 2176.37 1091.24 2203.89 1102.98 2224.97ZM1323.71 2260L1309.01 2260.17C1294.09 2260.17 1284.86 2257.89 1281.33 2253.33C1279.73 2251.28 1278.94 2248.83 1278.94 2245.99C1278.94 2243.02 1280.07 2240.97 1282.35 2239.83C1284.63 2238.69 1287.14 2238.07 1289.87 2237.95C1292.61 2237.84 1295.11 2236.99 1297.39 2235.39C1299.67 2233.68 1300.81 2231 1300.81 2227.36V2046.89C1300.81 2036.52 1296.71 2030.94 1288.51 2030.14C1287.71 2030.03 1286.68 2029.91 1285.43 2029.8C1284.18 2029.69 1283.26 2029.63 1282.7 2029.63C1282.13 2029.51 1281.39 2029.4 1280.47 2029.29C1279.68 2029.06 1279.05 2028.83 1278.59 2028.6C1278.25 2028.38 1277.91 2028.09 1277.57 2027.75C1276.77 2027.07 1276.37 2025.41 1276.37 2022.79C1276.37 2020.17 1278.14 2017.44 1281.67 2014.59C1288.05 2009.35 1296.65 2006.73 1307.48 2006.73C1318.98 2006.73 1325.7 2007.41 1327.64 2008.78C1331.52 2011.51 1333.45 2015.1 1333.45 2019.55V2227.36C1333.45 2233.97 1337.1 2237.5 1344.39 2237.95C1351.8 2238.3 1355.5 2241.2 1355.5 2246.67C1355.5 2252.94 1352.08 2256.81 1345.24 2258.29C1340 2259.43 1332.83 2260 1323.71 2260ZM1466.86 2241.37C1451.13 2225.88 1443.27 2205.31 1443.27 2179.68C1443.27 2154.04 1451.19 2133.25 1467.03 2117.3C1482.98 2101.24 1503.26 2093.2 1527.87 2093.2C1547.35 2093.2 1563.75 2099.53 1577.08 2112.17C1590.53 2124.71 1597.25 2140.49 1597.25 2159.51C1597.25 2168.74 1589.96 2173.35 1575.38 2173.35H1476.43C1476.65 2191.81 1482.64 2207.36 1494.37 2220.01C1506.11 2232.66 1520.92 2238.98 1538.8 2238.98C1550.65 2238.98 1562.16 2235.5 1573.33 2228.55C1579.25 2224.91 1583.01 2223.09 1584.6 2223.09C1586.31 2223.09 1588.19 2223.94 1590.24 2225.65C1592.41 2227.24 1593.49 2229.24 1593.49 2231.63C1593.49 2237.9 1589.45 2243.71 1581.36 2249.06C1573.38 2254.3 1564.55 2258.18 1554.87 2260.68C1545.18 2263.3 1536.7 2264.61 1529.4 2264.61C1503.54 2264.61 1482.69 2256.87 1466.86 2241.37ZM1565.81 2155.41C1565.58 2142.31 1562.16 2131.66 1555.55 2123.45C1548.94 2115.25 1539.26 2111.15 1526.5 2111.15C1513.85 2111.15 1502.74 2115.7 1493.17 2124.82C1483.72 2133.93 1478.7 2144.36 1478.13 2156.09H1518.12C1535.9 2156.09 1551.79 2155.87 1565.81 2155.41ZM1834.83 2118.5L1824.41 2118.67C1820.19 2118.67 1817.12 2118.27 1815.18 2117.47C1813.24 2116.67 1812.28 2115.02 1812.28 2112.51C1812.28 2109.89 1813.36 2107.56 1815.52 2105.51C1817.8 2103.34 1820.36 2101.69 1823.21 2100.55C1831.07 2097.36 1835.75 2094.68 1837.23 2092.52C1838.82 2090.24 1841.16 2085.34 1844.23 2077.82C1851.87 2059.02 1858.25 2049.62 1863.37 2049.62C1865.99 2049.62 1867.48 2052.47 1867.82 2058.17C1868.27 2063.75 1868.5 2068.02 1868.5 2070.99C1868.61 2073.95 1868.61 2078.39 1868.5 2084.32C1868.39 2090.13 1868.33 2094.17 1868.33 2096.45L1909 2096.62C1912.99 2096.62 1916.35 2097.65 1919.09 2099.7C1921.82 2101.63 1923.19 2104.25 1923.19 2107.56C1923.19 2110.86 1921.82 2113.43 1919.09 2115.25C1916.47 2117.07 1913.16 2117.98 1909.17 2117.98H1868.33L1868.16 2205.31C1868.16 2230.04 1874.37 2242.4 1886.79 2242.4C1890.21 2242.4 1895.28 2241.37 1902 2239.32C1908.72 2237.16 1913.11 2236.07 1915.16 2236.07C1919.83 2236.07 1922.16 2238.75 1922.16 2244.11C1922.16 2248.32 1916.64 2252.54 1905.59 2256.75C1894.65 2260.97 1883.37 2263.08 1871.75 2263.08C1860.24 2263.08 1851.18 2258.58 1844.58 2249.58C1838.08 2240.57 1834.83 2228.73 1834.83 2214.03V2118.5ZM2188.53 2260L2173.83 2260.17C2158.9 2260.17 2149.67 2257.89 2146.14 2253.33C2144.55 2251.28 2143.75 2248.83 2143.75 2245.99C2143.75 2243.02 2144.89 2240.97 2147.17 2239.83C2149.45 2238.69 2151.95 2238.07 2154.69 2237.95C2157.54 2237.84 2160.1 2236.99 2162.38 2235.39C2164.66 2233.68 2165.8 2231 2165.8 2227.36L2165.97 2177.63C2165.97 2156.66 2163.46 2141.23 2158.45 2131.31C2152.98 2120.15 2141.59 2114.57 2124.27 2114.57C2106.04 2114.57 2093.28 2120.32 2085.99 2131.83C2079.38 2142.54 2076.07 2158.09 2076.07 2178.48V2227.36C2076.07 2233.97 2079.72 2237.5 2087.01 2237.95C2094.42 2238.3 2098.12 2241.2 2098.12 2246.67C2098.12 2252.94 2094.65 2256.81 2087.7 2258.29C2082.68 2259.43 2075.56 2260 2066.33 2260L2051.64 2260.17C2036.71 2260.17 2027.48 2257.89 2023.95 2253.33C2022.36 2251.28 2021.56 2248.83 2021.56 2245.99C2021.56 2243.02 2022.7 2240.97 2024.98 2239.83C2027.25 2238.69 2029.76 2238.07 2032.5 2237.95C2035.34 2237.84 2037.91 2236.99 2040.19 2235.39C2042.46 2233.68 2043.6 2231 2043.6 2227.36V2041.25C2043.6 2034.64 2039.5 2030.65 2031.3 2029.29C2025.6 2028.38 2022.13 2027.41 2020.87 2026.38C2019.73 2025.24 2019.17 2023.42 2019.17 2020.91C2019.17 2018.41 2020.36 2016.13 2022.75 2014.08C2025.15 2012.03 2028.28 2010.49 2032.15 2009.46C2038.99 2007.64 2046.62 2006.73 2055.05 2006.73C2069.18 2006.73 2076.25 2011 2076.25 2019.55V2118.84C2091.74 2101.29 2111.34 2092.52 2135.03 2092.52C2158.73 2092.52 2175.2 2098.61 2184.42 2110.81C2193.77 2122.88 2198.44 2141.23 2198.44 2165.83L2198.27 2227.36C2198.27 2233.97 2201.91 2237.5 2209.2 2237.95C2216.61 2238.3 2220.31 2241.2 2220.31 2246.67C2220.31 2252.94 2216.89 2256.81 2210.06 2258.29C2204.82 2259.43 2197.64 2260 2188.53 2260ZM2339.7 2151.65C2335.49 2151.65 2330.7 2150 2325.35 2146.69C2320.11 2143.28 2317.49 2138.89 2317.49 2133.54C2317.49 2128.07 2319.02 2122.94 2322.1 2118.15C2325.18 2113.37 2329.16 2109.5 2334.06 2106.53C2338.96 2103.46 2344.66 2100.89 2351.15 2098.84C2363 2095.08 2375.76 2093.2 2389.43 2093.2C2412.45 2093.2 2429.14 2098.33 2439.51 2108.58C2449.99 2118.72 2455.23 2135.53 2455.23 2159L2455.06 2209.41C2455.06 2221.6 2456.6 2229.24 2459.67 2232.31C2460.47 2233.11 2462.98 2234.14 2467.19 2235.39C2478.81 2239.04 2484.62 2241.83 2484.62 2243.76C2484.62 2255.73 2472.38 2261.71 2447.88 2261.71C2438.65 2261.71 2432.61 2259.66 2429.77 2255.56C2427.03 2251.46 2425.55 2243.99 2425.32 2233.17C2420.2 2242.4 2412.39 2249.86 2401.91 2255.56C2391.43 2261.25 2380.21 2264.1 2368.24 2264.1C2356.28 2264.1 2346.14 2262.56 2337.82 2259.49C2329.51 2256.41 2322.73 2251.46 2317.49 2244.62C2312.36 2237.67 2309.79 2230.21 2309.79 2222.23C2309.79 2214.26 2310.71 2207.88 2312.53 2203.09C2314.35 2198.19 2316.63 2194.09 2319.37 2190.79C2322.1 2187.48 2325.8 2184.52 2330.47 2181.9C2335.26 2179.28 2339.7 2177.23 2343.8 2175.75C2347.91 2174.15 2353.2 2172.73 2359.7 2171.47C2369.27 2169.65 2377.3 2168.4 2383.79 2167.71C2390.29 2166.92 2393.65 2166.46 2393.88 2166.35C2394.56 2166.23 2398.43 2165.83 2405.5 2165.15C2412.68 2164.35 2418.32 2162.82 2422.42 2160.54C2422.42 2138.89 2419.51 2124.76 2413.7 2118.15C2408.57 2112.46 2400.14 2109.61 2388.41 2109.61C2376.67 2109.61 2367.84 2112.63 2361.92 2118.67C2356.11 2124.59 2353.2 2134.05 2353.2 2147.04L2353.37 2150.8C2348.59 2151.37 2344.03 2151.65 2339.7 2151.65ZM2422.42 2175.92C2414.67 2178.77 2405.9 2180.76 2396.1 2181.9C2386.41 2182.92 2378.78 2184.18 2373.2 2185.66C2367.62 2187.14 2362.94 2188.96 2359.18 2191.13C2350.53 2196.14 2346.2 2204.74 2346.2 2216.93C2346.2 2236.53 2357.59 2246.33 2380.38 2246.33C2400.09 2246.33 2412.56 2236.93 2417.8 2218.13C2420.88 2207.42 2422.42 2193.35 2422.42 2175.92ZM2586.24 2118.5L2575.82 2118.67C2571.6 2118.67 2568.52 2118.27 2566.59 2117.47C2564.65 2116.67 2563.68 2115.02 2563.68 2112.51C2563.68 2109.89 2564.76 2107.56 2566.93 2105.51C2569.21 2103.34 2571.77 2101.69 2574.62 2100.55C2582.48 2097.36 2587.15 2094.68 2588.63 2092.52C2590.23 2090.24 2592.56 2085.34 2595.64 2077.82C2603.27 2059.02 2609.65 2049.62 2614.78 2049.62C2617.4 2049.62 2618.88 2052.47 2619.22 2058.17C2619.68 2063.75 2619.91 2068.02 2619.91 2070.99C2620.02 2073.95 2620.02 2078.39 2619.91 2084.32C2619.79 2090.13 2619.74 2094.17 2619.74 2096.45L2660.41 2096.62C2664.4 2096.62 2667.76 2097.65 2670.49 2099.7C2673.23 2101.63 2674.59 2104.25 2674.59 2107.56C2674.59 2110.86 2673.23 2113.43 2670.49 2115.25C2667.87 2117.07 2664.57 2117.98 2660.58 2117.98H2619.74L2619.57 2205.31C2619.57 2230.04 2625.77 2242.4 2638.19 2242.4C2641.61 2242.4 2646.68 2241.37 2653.4 2239.32C2660.13 2237.16 2664.51 2236.07 2666.56 2236.07C2671.23 2236.07 2673.57 2238.75 2673.57 2244.11C2673.57 2248.32 2668.04 2252.54 2656.99 2256.75C2646.05 2260.97 2634.78 2263.08 2623.15 2263.08C2611.65 2263.08 2602.59 2258.58 2595.98 2249.58C2589.49 2240.57 2586.24 2228.73 2586.24 2214.03V2118.5ZM2978.83 2244.45C3004.46 2244.45 3017.28 2236.59 3017.28 2220.86C3017.28 2209.02 3005.72 2199.73 2982.59 2193.01C2978.26 2191.75 2973.02 2190.27 2966.87 2188.56C2955.36 2185.49 2947.61 2183.15 2943.62 2181.56C2933.6 2177.68 2925.11 2172.04 2918.16 2164.64C2911.21 2157.23 2907.73 2148.46 2907.73 2138.32C2907.73 2125.22 2913.94 2114.34 2926.36 2105.68C2938.89 2097.02 2953.99 2092.69 2971.65 2092.69C2988.85 2092.69 3004.98 2095.82 3020.01 2102.09C3027.42 2105.17 3033.4 2109.44 3037.96 2114.91C3042.63 2120.38 3044.97 2126.07 3044.97 2132C3044.97 2137.92 3042.57 2142.65 3037.79 2146.18C3033.12 2149.71 3028.22 2151.48 3023.09 2151.48C3018.08 2151.48 3014.72 2151.02 3013.01 2150.11C3011.41 2149.09 3010.62 2146.81 3010.62 2143.28C3010.62 2121.29 2998.94 2110.29 2975.58 2110.29C2965.9 2110.29 2957.47 2112.46 2950.29 2116.79C2943.11 2121 2939.52 2126.53 2939.52 2133.36C2939.52 2144.07 2950.69 2152.56 2973.02 2158.83C2976.55 2159.74 2980.82 2160.88 2985.83 2162.25C2990.85 2163.5 2995.46 2164.81 2999.68 2166.18C3003.89 2167.43 3008.28 2168.97 3012.84 2170.79C3017.51 2172.5 3022.41 2174.78 3027.53 2177.63C3032.66 2180.48 3036.82 2183.55 3040.01 2186.86C3047.42 2194.38 3051.12 2203.49 3051.12 2214.2C3051.12 2224.79 3047.53 2233.97 3040.35 2241.71C3026.11 2256.87 3005.6 2264.44 2978.83 2264.44C2961.4 2264.44 2945.33 2261.6 2930.63 2255.9C2923.12 2252.94 2917.08 2248.83 2912.52 2243.59C2907.96 2238.35 2905.68 2232.77 2905.68 2226.85C2905.68 2220.92 2907.56 2216.36 2911.32 2213.17C2915.08 2209.87 2919.36 2208.22 2924.14 2208.22C2928.93 2208.22 2932.97 2209.7 2936.27 2212.66C2939.69 2215.62 2941.4 2219.33 2941.4 2223.77C2941.4 2228.1 2941 2232.77 2940.21 2237.78C2952.28 2242.23 2965.16 2244.45 2978.83 2244.45ZM3300.05 2181.22C3300.05 2154.9 3292.42 2135.76 3277.15 2123.79C3269.17 2117.64 3259.66 2114.57 3248.61 2114.57C3215.91 2114.57 3199.56 2132.97 3199.56 2169.77V2225.99C3208.79 2237.95 3224.68 2243.94 3247.24 2243.94C3263.65 2243.94 3276.52 2238.07 3285.86 2226.33C3295.32 2214.48 3300.05 2199.44 3300.05 2181.22ZM3189.82 2330.07L3175.12 2330.24C3160.2 2330.24 3150.97 2327.96 3147.44 2323.4C3145.84 2321.35 3145.04 2318.85 3145.04 2315.88C3145.04 2313.04 3146.18 2311.04 3148.46 2309.9C3150.74 2308.76 3153.25 2308.14 3155.98 2308.02C3158.83 2307.91 3161.39 2307 3163.67 2305.29C3165.95 2303.69 3167.09 2301.07 3167.09 2297.43V2143.28C3167.09 2135.07 3166.46 2129.43 3165.21 2126.36C3164.07 2123.17 3161.39 2120.77 3157.18 2119.18C3156.72 2118.95 3154.44 2118.38 3150.34 2117.47C3141.8 2115.42 3137.52 2112.57 3137.52 2108.93C3137.52 2100.04 3148.97 2095.6 3171.88 2095.6C3181.56 2095.6 3188.34 2096.74 3192.21 2099.01C3196.09 2101.29 3198.02 2106.19 3198.02 2113.71C3198.02 2115.99 3197.97 2117.7 3197.85 2118.84C3206.62 2110.29 3215.45 2103.8 3224.34 2099.36C3233.23 2094.91 3244.56 2092.69 3258.35 2092.69C3272.14 2092.69 3285.01 2096.56 3296.97 2104.31C3309.05 2112.06 3318.16 2122.31 3324.32 2135.07C3330.47 2147.72 3333.54 2161.85 3333.54 2177.46C3333.54 2202.18 3325.46 2222.57 3309.28 2238.64C3293.1 2254.7 3272.53 2262.73 3247.58 2262.73C3233.57 2262.73 3217.56 2258.12 3199.56 2248.89V2297.43C3199.56 2304.03 3203.21 2307.51 3210.5 2307.85C3217.9 2308.31 3221.61 2311.27 3221.61 2316.74C3221.61 2323 3218.13 2326.88 3211.18 2328.36C3206.17 2329.5 3199.05 2330.07 3189.82 2330.07ZM3438.75 2241.37C3423.03 2225.88 3415.17 2205.31 3415.17 2179.68C3415.17 2154.04 3423.08 2133.25 3438.92 2117.3C3454.87 2101.24 3475.15 2093.2 3499.76 2093.2C3519.24 2093.2 3535.65 2099.53 3548.98 2112.17C3562.42 2124.71 3569.15 2140.49 3569.15 2159.51C3569.15 2168.74 3561.85 2173.35 3547.27 2173.35H3448.32C3448.55 2191.81 3454.53 2207.36 3466.26 2220.01C3478 2232.66 3492.81 2238.98 3510.7 2238.98C3522.55 2238.98 3534.05 2235.5 3545.22 2228.55C3551.14 2224.91 3554.9 2223.09 3556.5 2223.09C3558.21 2223.09 3560.09 2223.94 3562.14 2225.65C3564.3 2227.24 3565.39 2229.24 3565.39 2231.63C3565.39 2237.9 3561.34 2243.71 3553.25 2249.06C3545.28 2254.3 3536.45 2258.18 3526.76 2260.68C3517.08 2263.3 3508.59 2264.61 3501.3 2264.61C3475.44 2264.61 3454.59 2256.87 3438.75 2241.37ZM3537.7 2155.41C3537.47 2142.31 3534.05 2131.66 3527.45 2123.45C3520.84 2115.25 3511.15 2111.15 3498.39 2111.15C3485.75 2111.15 3474.64 2115.7 3465.07 2124.82C3455.61 2133.93 3450.6 2144.36 3450.03 2156.09H3490.02C3507.79 2156.09 3523.69 2155.87 3537.7 2155.41ZM3690.42 2151.65C3686.2 2151.65 3681.41 2150 3676.06 2146.69C3670.82 2143.28 3668.2 2138.89 3668.2 2133.54C3668.2 2128.07 3669.74 2122.94 3672.81 2118.15C3675.89 2113.37 3679.88 2109.5 3684.78 2106.53C3689.67 2103.46 3695.37 2100.89 3701.87 2098.84C3713.71 2095.08 3726.47 2093.2 3740.15 2093.2C3763.16 2093.2 3779.85 2098.33 3790.22 2108.58C3800.7 2118.72 3805.94 2135.53 3805.94 2159L3805.77 2209.41C3805.77 2221.6 3807.31 2229.24 3810.39 2232.31C3811.18 2233.11 3813.69 2234.14 3817.91 2235.39C3829.53 2239.04 3835.34 2241.83 3835.34 2243.76C3835.34 2255.73 3823.09 2261.71 3798.59 2261.71C3789.37 2261.71 3783.33 2259.66 3780.48 2255.56C3777.74 2251.46 3776.26 2243.99 3776.04 2233.17C3770.91 2242.4 3763.1 2249.86 3752.62 2255.56C3742.14 2261.25 3730.92 2264.1 3718.96 2264.1C3706.99 2264.1 3696.85 2262.56 3688.54 2259.49C3680.22 2256.41 3673.44 2251.46 3668.2 2244.62C3663.07 2237.67 3660.51 2230.21 3660.51 2222.23C3660.51 2214.26 3661.42 2207.88 3663.24 2203.09C3665.07 2198.19 3667.34 2194.09 3670.08 2190.79C3672.81 2187.48 3676.52 2184.52 3681.19 2181.9C3685.97 2179.28 3690.42 2177.23 3694.52 2175.75C3698.62 2174.15 3703.92 2172.73 3710.41 2171.47C3719.98 2169.65 3728.01 2168.4 3734.51 2167.71C3741 2166.92 3744.36 2166.46 3744.59 2166.35C3745.27 2166.23 3749.15 2165.83 3756.21 2165.15C3763.39 2164.35 3769.03 2162.82 3773.13 2160.54C3773.13 2138.89 3770.22 2124.76 3764.41 2118.15C3759.29 2112.46 3750.86 2109.61 3739.12 2109.61C3727.39 2109.61 3718.56 2112.63 3712.63 2118.67C3706.82 2124.59 3703.92 2134.05 3703.92 2147.04L3704.09 2150.8C3699.3 2151.37 3694.74 2151.65 3690.42 2151.65ZM3773.13 2175.92C3765.38 2178.77 3756.61 2180.76 3746.81 2181.9C3737.13 2182.92 3729.49 2184.18 3723.91 2185.66C3718.33 2187.14 3713.66 2188.96 3709.9 2191.13C3701.24 2196.14 3696.91 2204.74 3696.91 2216.93C3696.91 2236.53 3708.3 2246.33 3731.09 2246.33C3750.8 2246.33 3763.27 2236.93 3768.52 2218.13C3771.59 2207.42 3773.13 2193.35 3773.13 2175.92ZM3972.5 2260L3957.8 2260.17C3942.88 2260.17 3933.65 2257.89 3930.12 2253.33C3928.52 2251.28 3927.72 2248.83 3927.72 2245.99C3927.72 2243.02 3928.86 2240.97 3931.14 2239.83C3933.42 2238.69 3935.93 2238.07 3938.66 2237.95C3941.51 2237.84 3944.07 2236.99 3946.35 2235.39C3948.63 2233.68 3949.77 2231 3949.77 2227.36V2046.89C3949.77 2036.52 3945.73 2030.94 3937.64 2030.14C3936.84 2030.03 3935.81 2029.91 3934.56 2029.8C3933.31 2029.69 3932.4 2029.63 3931.83 2029.63C3931.26 2029.51 3930.52 2029.4 3929.6 2029.29C3928.81 2029.06 3928.18 2028.83 3927.72 2028.6C3927.38 2028.38 3926.98 2028.09 3926.53 2027.75C3925.73 2027.18 3925.33 2025.58 3925.33 2022.96C3925.33 2020.23 3927.04 2017.44 3930.46 2014.59C3936.95 2009.35 3945.61 2006.73 3956.44 2006.73C3967.94 2006.73 3974.66 2007.41 3976.6 2008.78C3980.48 2011.51 3982.41 2015.1 3982.41 2019.55V2169.08C3986.63 2165.89 3996.43 2158.71 4011.81 2147.55C4042.11 2125.67 4057.27 2113.71 4057.27 2111.66C4057.27 2109.04 4052.94 2106.36 4044.28 2103.63C4044.62 2093.26 4054.19 2088.08 4072.99 2088.08H4096.23C4124.94 2088.08 4139.3 2089.67 4139.3 2092.86C4139.3 2094.34 4137.64 2096.74 4134.34 2100.04C4131.15 2103.23 4127.85 2105.79 4124.43 2107.73C4116.91 2107.73 4108.25 2110.29 4098.45 2115.42C4088.77 2120.55 4076.81 2128.41 4062.56 2139L4033 2160.88L4086.66 2217.62C4093.15 2224.34 4099.02 2229.52 4104.26 2233.17C4109.62 2236.7 4114.52 2239.04 4118.96 2240.18C4123.4 2241.2 4126.71 2242 4128.87 2242.57C4131.15 2243.02 4132.8 2243.37 4133.83 2243.59C4134.85 2243.82 4136.16 2244.28 4137.76 2244.96C4139.35 2245.53 4140.55 2246.16 4141.35 2246.84C4143.28 2248.66 4144.25 2250.89 4144.25 2253.51C4144.25 2258.97 4135.42 2261.71 4117.76 2261.71H4109.56C4098.74 2261.71 4091.27 2261.2 4087.17 2260.17C4083.19 2259.26 4078.91 2256.64 4074.36 2252.31C4057.38 2236.25 4036.36 2210.27 4011.29 2174.38L3982.24 2194.03V2227.36C3982.24 2233.97 3985.89 2237.5 3993.18 2237.95C4000.58 2238.3 4004.29 2241.2 4004.29 2246.67C4004.29 2252.94 4000.87 2256.81 3994.03 2258.29C3988.79 2259.43 3981.61 2260 3972.5 2260ZM4306.03 2244.45C4331.66 2244.45 4344.48 2236.59 4344.48 2220.86C4344.48 2209.02 4332.91 2199.73 4309.79 2193.01C4305.46 2191.75 4300.21 2190.27 4294.06 2188.56C4282.56 2185.49 4274.81 2183.15 4270.82 2181.56C4260.79 2177.68 4252.31 2172.04 4245.36 2164.64C4238.41 2157.23 4234.93 2148.46 4234.93 2138.32C4234.93 2125.22 4241.14 2114.34 4253.56 2105.68C4266.09 2097.02 4281.19 2092.69 4298.85 2092.69C4316.05 2092.69 4332.17 2095.82 4347.21 2102.09C4354.62 2105.17 4360.6 2109.44 4365.16 2114.91C4369.83 2120.38 4372.16 2126.07 4372.16 2132C4372.16 2137.92 4369.77 2142.65 4364.99 2146.18C4360.31 2149.71 4355.42 2151.48 4350.29 2151.48C4345.28 2151.48 4341.91 2151.02 4340.21 2150.11C4338.61 2149.09 4337.81 2146.81 4337.81 2143.28C4337.81 2121.29 4326.13 2110.29 4302.78 2110.29C4293.09 2110.29 4284.66 2112.46 4277.49 2116.79C4270.31 2121 4266.72 2126.53 4266.72 2133.36C4266.72 2144.07 4277.88 2152.56 4300.21 2158.83C4303.75 2159.74 4308.02 2160.88 4313.03 2162.25C4318.05 2163.5 4322.66 2164.81 4326.88 2166.18C4331.09 2167.43 4335.48 2168.97 4340.03 2170.79C4344.71 2172.5 4349.6 2174.78 4354.73 2177.63C4359.86 2180.48 4364.02 2183.55 4367.21 2186.86C4374.61 2194.38 4378.32 2203.49 4378.32 2214.2C4378.32 2224.79 4374.73 2233.97 4367.55 2241.71C4353.31 2256.87 4332.8 2264.44 4306.03 2264.44C4288.59 2264.44 4272.53 2261.6 4257.83 2255.9C4250.31 2252.94 4244.27 2248.83 4239.72 2243.59C4235.16 2238.35 4232.88 2232.77 4232.88 2226.85C4232.88 2220.92 4234.76 2216.36 4238.52 2213.17C4242.28 2209.87 4246.55 2208.22 4251.34 2208.22C4256.12 2208.22 4260.17 2209.7 4263.47 2212.66C4266.89 2215.62 4268.6 2219.33 4268.6 2223.77C4268.6 2228.1 4268.2 2232.77 4267.4 2237.78C4279.48 2242.23 4292.35 2244.45 4306.03 2244.45ZM4528.98 2241.2C4528.98 2246.56 4527.21 2251.28 4523.68 2255.39C4520.15 2259.49 4515.31 2261.54 4509.16 2261.54C4503 2261.54 4498.1 2259.54 4494.46 2255.56C4490.81 2251.46 4488.99 2246.73 4488.99 2241.37C4488.99 2236.02 4490.64 2231.46 4493.95 2227.7C4497.36 2223.83 4502.26 2221.89 4508.64 2221.89C4515.02 2221.89 4519.98 2223.77 4523.51 2227.53C4527.16 2231.29 4528.98 2235.85 4528.98 2241.2ZM4529.83 2064.49L4516.67 2164.81C4515.76 2173.58 4514.79 2179.05 4513.77 2181.22C4512.74 2183.27 4511.49 2184.29 4510.01 2184.29C4508.64 2184.29 4507.62 2184.12 4506.93 2183.78C4506.36 2183.44 4505.85 2182.87 4505.4 2182.07C4504.94 2181.16 4504.54 2180.36 4504.2 2179.68C4503.97 2178.88 4503.74 2177.8 4503.52 2176.43C4503.4 2174.95 4503.29 2173.75 4503.17 2172.84C4503.06 2171.93 4502.89 2170.62 4502.66 2168.91C4502.55 2167.09 4502.43 2165.72 4502.32 2164.81L4489.16 2064.49C4488.93 2061.53 4488.82 2059.37 4488.82 2058C4488.82 2050.02 4490.87 2043.81 4494.97 2039.37C4499.07 2034.93 4503.91 2032.71 4509.5 2032.71C4515.08 2032.71 4519.92 2034.98 4524.02 2039.54C4528.12 2043.98 4530.18 2050.14 4530.18 2058C4530.18 2060.85 4530.06 2063.01 4529.83 2064.49Z" fill="black"/>
</svg>
