<svg width="6404" height="2434" viewBox="0 0 6404 2434" fill="none" xmlns="http://www.w3.org/2000/svg">
<g filter="url(#filter0_d_1_2730)">
<rect x="4" y="204" width="6080" height="2222" fill="white"/>
<rect x="4.5" y="204.5" width="6079" height="2221" stroke="black"/>
</g>
<path d="M621.5 622.5C621.5 661.5 631 695.5 650 724.5C670 753.5 694 778.5 722 799.5C750 819.5 788 843.5 836 871.5C886 899.5 926 925 956 948C987 970 1013 997.5 1034 1030.5C1055 1063.5 1065.5 1102 1065.5 1146C1065.5 1195 1053.5 1239 1029.5 1278C1005.5 1317 970 1348 923 1371C877 1393 822 1404 758 1404C678 1404 606.5 1386.5 543.5 1351.5C538.5 1348.5 535 1344.5 533 1339.5C531 1334.5 529.5 1329 528.5 1323L509 1119C508 1115 510.5 1112.5 516.5 1111.5C522.5 1110.5 526 1112 527 1116C541 1186 570.5 1247.5 615.5 1300.5C660.5 1353.5 719.5 1380 792.5 1380C842.5 1380 884.5 1366.5 918.5 1339.5C952.5 1311.5 969.5 1267.5 969.5 1207.5C969.5 1162.5 959 1123.5 938 1090.5C918 1056.5 893 1028.5 863 1006.5C834 983.5 795.5 958 747.5 930C700.5 902 662.5 877.5 633.5 856.5C605.5 834.5 581.5 808 561.5 777C542.5 745 533 708 533 666C533 616 546 573.5 572 538.5C599 502.5 633.5 476 675.5 459C718.5 441 764 432 812 432C872 432 931 444 989 468C1005 474 1013 482.5 1013 493.5L1022 666C1022 670 1019 672.5 1013 673.5C1008 673.5 1005 671.5 1004 667.5C1000 636.5 990 605 974 573C958 540 934 512 902 489C871 466 833 454.5 788 454.5C732 454.5 690 471 662 504C635 536 621.5 575.5 621.5 622.5ZM1866.64 1270.5C1867.64 1269.5 1869.14 1269 1871.14 1269C1875.14 1269 1878.64 1271 1881.64 1275C1885.64 1278 1886.64 1280.5 1884.64 1282.5C1852.64 1323.5 1824.64 1353.5 1800.64 1372.5C1777.64 1390.5 1753.64 1399.5 1728.64 1399.5C1671.64 1399.5 1644.14 1360 1646.14 1281L1647.64 1014C1648.64 902 1618.64 846 1557.64 846C1519.64 846 1485.14 866.5 1454.14 907.5C1423.14 948.5 1398.14 1009 1379.14 1089C1360.14 1169 1349.64 1264.5 1347.64 1375.5C1347.64 1390.5 1331.64 1398 1299.64 1398C1284.64 1398 1274.64 1397 1269.64 1395C1264.64 1394 1261.64 1392 1260.64 1389L1262.14 1353L1263.64 1275L1274.14 457.5C1274.14 410.5 1257.64 387 1224.64 387C1206.64 387 1181.14 394.5 1148.14 409.5H1145.14C1141.14 409.5 1138.64 407.5 1137.64 403.5C1135.64 398.5 1136.14 395 1139.14 393L1335.64 298.5H1338.64C1341.64 298.5 1345.14 300 1349.14 303C1353.14 306 1355.14 308.5 1355.14 310.5L1349.14 1123.5C1368.14 1018.5 1399.14 936.5 1442.14 877.5C1486.14 817.5 1539.14 787.5 1601.14 787.5C1645.14 787.5 1677.64 803.5 1698.64 835.5C1720.64 867.5 1731.14 917.5 1730.14 985.5L1728.64 1252.5C1728.64 1282.5 1732.14 1304.5 1739.14 1318.5C1746.14 1332.5 1757.14 1339.5 1772.14 1339.5C1797.14 1339.5 1828.64 1316.5 1866.64 1270.5ZM2177.7 1407C2125.7 1407 2080.2 1394.5 2041.2 1369.5C2003.2 1343.5 1973.7 1308.5 1952.7 1264.5C1931.7 1220.5 1921.2 1171 1921.2 1116C1921.2 1054 1933.7 998 1958.7 948C1983.7 898 2018.2 859 2062.2 831C2107.2 802 2158.2 787.5 2215.2 787.5C2291.2 787.5 2352.7 813 2399.7 864C2447.7 914 2471.7 983.5 2471.7 1072.5C2471.7 1140.5 2458.2 1200 2431.2 1251C2404.2 1302 2368.2 1341 2323.2 1368C2278.2 1394 2229.7 1407 2177.7 1407ZM2222.7 1369.5C2271.7 1369.5 2312.2 1349 2344.2 1308C2376.2 1267 2392.2 1211.5 2392.2 1141.5C2392.2 1087.5 2382.7 1036 2363.7 987C2345.7 938 2319.7 898.5 2285.7 868.5C2252.7 838.5 2215.2 823.5 2173.2 823.5C2124.2 823.5 2083.2 843.5 2050.2 883.5C2017.2 923.5 2000.7 978.5 2000.7 1048.5C2000.7 1101.5 2010.2 1153 2029.2 1203C2048.2 1252 2074.7 1292 2108.7 1323C2142.7 1354 2180.7 1369.5 2222.7 1369.5ZM2787.84 1387.5C2763.84 1387.5 2736.84 1386 2706.84 1383V1653C2706.84 1688 2711.84 1712 2721.84 1725C2731.84 1739 2750.34 1746 2777.34 1746C2784.34 1746 2797.84 1745 2817.84 1743H2819.34C2822.34 1743 2824.34 1745.5 2825.34 1750.5C2826.34 1755.5 2824.84 1758.5 2820.84 1759.5L2544.84 1798.5C2540.84 1799.5 2537.84 1797 2535.84 1791C2534.84 1785 2536.34 1781.5 2540.34 1780.5C2564.34 1776.5 2581.34 1771 2591.34 1764C2602.34 1758 2609.34 1748 2612.34 1734C2616.34 1720 2618.34 1696.5 2618.34 1663.5L2619.84 951C2614.84 954 2593.34 971 2555.34 1002L2552.34 1003.5C2548.34 1003.5 2544.84 1001.5 2541.84 997.5C2538.84 993.5 2538.34 990.5 2540.34 988.5C2557.34 972.5 2583.84 949.5 2619.84 919.5V807C2619.84 805 2626.34 798 2639.34 786C2652.34 774 2663.84 761 2673.84 747C2683.84 733 2688.84 717 2688.84 699C2688.84 695 2691.84 693 2697.84 693C2703.84 693 2706.84 695 2706.84 699V861C2780.84 818 2851.34 796.5 2918.34 796.5C2981.34 796.5 3029.84 815.5 3063.84 853.5C3097.84 891.5 3114.84 947 3114.84 1020C3114.84 1088 3101.34 1150 3074.34 1206C3047.34 1262 3008.84 1306.5 2958.84 1339.5C2909.84 1371.5 2852.84 1387.5 2787.84 1387.5ZM2858.34 850.5C2809.34 850.5 2758.84 865 2706.84 894V1320C2749.84 1337 2791.34 1345.5 2831.34 1345.5C2904.34 1345.5 2955.84 1322 2985.84 1275C3016.84 1228 3032.34 1162.5 3032.34 1078.5C3032.34 926.5 2974.34 850.5 2858.34 850.5ZM3441.16 1387.5C3417.16 1387.5 3390.16 1386 3360.16 1383V1653C3360.16 1688 3365.16 1712 3375.16 1725C3385.16 1739 3403.66 1746 3430.66 1746C3437.66 1746 3451.16 1745 3471.16 1743H3472.66C3475.66 1743 3477.66 1745.5 3478.66 1750.5C3479.66 1755.5 3478.16 1758.5 3474.16 1759.5L3198.16 1798.5C3194.16 1799.5 3191.16 1797 3189.16 1791C3188.16 1785 3189.66 1781.5 3193.66 1780.5C3217.66 1776.5 3234.66 1771 3244.66 1764C3255.66 1758 3262.66 1748 3265.66 1734C3269.66 1720 3271.66 1696.5 3271.66 1663.5L3273.16 951C3268.16 954 3246.66 971 3208.66 1002L3205.66 1003.5C3201.66 1003.5 3198.16 1001.5 3195.16 997.5C3192.16 993.5 3191.66 990.5 3193.66 988.5C3210.66 972.5 3237.16 949.5 3273.16 919.5V807C3273.16 805 3279.66 798 3292.66 786C3305.66 774 3317.16 761 3327.16 747C3337.16 733 3342.16 717 3342.16 699C3342.16 695 3345.16 693 3351.16 693C3357.16 693 3360.16 695 3360.16 699V861C3434.16 818 3504.66 796.5 3571.66 796.5C3634.66 796.5 3683.16 815.5 3717.16 853.5C3751.16 891.5 3768.16 947 3768.16 1020C3768.16 1088 3754.66 1150 3727.66 1206C3700.66 1262 3662.16 1306.5 3612.16 1339.5C3563.16 1371.5 3506.16 1387.5 3441.16 1387.5ZM3511.66 850.5C3462.66 850.5 3412.16 865 3360.16 894V1320C3403.16 1337 3444.66 1345.5 3484.66 1345.5C3557.66 1345.5 3609.16 1322 3639.16 1275C3670.16 1228 3685.66 1162.5 3685.66 1078.5C3685.66 926.5 3627.66 850.5 3511.66 850.5ZM4059.98 1399.5C4031.98 1399.5 4010.48 1389.5 3995.48 1369.5C3981.48 1349.5 3974.98 1320 3975.98 1281L3980.48 940.5C3981.48 881.5 3966.98 852 3936.98 852C3912.98 852 3879.48 876 3836.48 924C3834.48 926 3832.98 927 3831.98 927C3827.98 927 3824.48 925.5 3821.48 922.5C3818.48 918.5 3817.98 915 3819.98 912C3849.98 872 3877.98 842.5 3903.98 823.5C3929.98 803.5 3956.98 793.5 3984.98 793.5C4012.98 793.5 4033.48 803 4046.48 822C4059.48 841 4065.98 870 4065.98 909L4061.48 1252.5C4061.48 1310.5 4075.48 1339.5 4103.48 1339.5C4128.48 1339.5 4160.48 1316.5 4199.48 1270.5C4200.48 1269.5 4201.98 1269 4203.98 1269C4207.98 1269 4211.48 1271 4214.48 1275C4218.48 1278 4219.48 1280.5 4217.48 1282.5C4186.48 1322.5 4158.98 1352 4134.98 1371C4110.98 1390 4085.98 1399.5 4059.98 1399.5ZM4007.48 618C3986.48 618 3969.98 612.5 3957.98 601.5C3945.98 589.5 3939.98 573 3939.98 552C3939.98 533 3945.98 518 3957.98 507C3969.98 496 3986.48 490.5 4007.48 490.5C4026.48 490.5 4041.48 496 4052.48 507C4064.48 518 4070.48 533 4070.48 552C4070.48 573 4064.98 589.5 4053.98 601.5C4042.98 612.5 4027.48 618 4007.48 618ZM4665.63 1279.5C4668.63 1279.5 4671.63 1281.5 4674.63 1285.5C4677.63 1288.5 4678.13 1291 4676.13 1293C4634.13 1332 4596.13 1360.5 4562.13 1378.5C4529.13 1395.5 4495.63 1404 4461.63 1404C4423.63 1404 4392.13 1394 4367.13 1374C4342.13 1354 4330.13 1321.5 4331.13 1276.5L4332.63 927C4331.63 901 4329.63 882.5 4326.63 871.5C4323.63 860.5 4317.13 853.5 4307.13 850.5C4298.13 846.5 4282.13 844.5 4259.13 844.5C4255.13 844.5 4252.63 841.5 4251.63 835.5C4251.63 829.5 4253.63 826.5 4257.63 826.5C4295.63 826.5 4326.13 816 4349.13 795C4373.13 773 4387.13 745 4391.13 711C4391.13 708 4395.13 706.5 4403.13 706.5C4413.13 706.5 4418.13 708 4418.13 711V822C4455.13 821 4524.63 817.5 4626.63 811.5C4630.63 811.5 4633.63 813 4635.63 816C4638.63 818 4640.13 821 4640.13 825C4639.13 835 4633.63 846 4623.63 858C4614.63 870 4604.13 875 4592.13 873C4523.13 864 4465.13 859 4418.13 858L4416.63 1230C4416.63 1271 4423.63 1301 4437.63 1320C4452.63 1338 4478.63 1347 4515.63 1347C4543.63 1347 4569.13 1341.5 4592.13 1330.5C4615.13 1318.5 4639.13 1301.5 4664.13 1279.5H4665.63Z" fill="black"/>
<path d="M650.475 2244.45C676.109 2244.45 688.927 2236.59 688.927 2220.86C688.927 2209.02 677.363 2199.73 654.234 2193.01C649.905 2191.75 644.664 2190.27 638.512 2188.56C627.005 2185.49 619.257 2183.15 615.27 2181.56C605.243 2177.68 596.756 2172.04 589.806 2164.64C582.856 2157.23 579.381 2148.46 579.381 2138.32C579.381 2125.22 585.59 2114.34 598.009 2105.68C610.541 2097.02 625.637 2092.69 643.297 2092.69C660.501 2092.69 676.622 2095.82 691.661 2102.09C699.067 2105.17 705.048 2109.44 709.605 2114.91C714.277 2120.38 716.612 2126.07 716.612 2132C716.612 2137.92 714.22 2142.65 709.435 2146.18C704.763 2149.71 699.864 2151.48 694.737 2151.48C689.724 2151.48 686.363 2151.02 684.654 2150.11C683.059 2149.09 682.262 2146.81 682.262 2143.28C682.262 2121.29 670.584 2110.29 647.228 2110.29C637.543 2110.29 629.112 2112.46 621.935 2116.79C614.757 2121 611.168 2126.53 611.168 2133.36C611.168 2144.07 622.333 2152.56 644.664 2158.83C648.196 2159.74 652.468 2160.88 657.481 2162.25C662.494 2163.5 667.109 2164.81 671.324 2166.18C675.54 2167.43 679.926 2168.97 684.483 2170.79C689.155 2172.5 694.054 2174.78 699.181 2177.63C704.308 2180.48 708.466 2183.55 711.656 2186.86C719.062 2194.38 722.765 2203.49 722.765 2214.2C722.765 2224.79 719.176 2233.97 711.998 2241.71C697.757 2256.87 677.249 2264.44 650.475 2264.44C633.043 2264.44 616.979 2261.6 602.281 2255.9C594.762 2252.94 588.723 2248.83 584.166 2243.59C579.609 2238.35 577.33 2232.77 577.33 2226.85C577.33 2220.92 579.21 2216.36 582.97 2213.17C586.729 2209.87 591.002 2208.22 595.787 2208.22C600.572 2208.22 604.617 2209.7 607.921 2212.66C611.339 2215.62 613.048 2219.33 613.048 2223.77C613.048 2228.1 612.649 2232.77 611.852 2237.78C623.928 2242.23 636.803 2244.45 650.475 2244.45ZM833.268 2118.5L822.843 2118.67C818.627 2118.67 815.551 2118.27 813.614 2117.47C811.677 2116.67 810.709 2115.02 810.709 2112.51C810.709 2109.89 811.791 2107.56 813.956 2105.51C816.235 2103.34 818.798 2101.69 821.646 2100.55C829.508 2097.36 834.179 2094.68 835.66 2092.52C837.255 2090.24 839.591 2085.34 842.667 2077.82C850.3 2059.02 856.681 2049.62 861.808 2049.62C864.428 2049.62 865.909 2052.47 866.251 2058.17C866.707 2063.75 866.935 2068.02 866.935 2070.99C867.049 2073.95 867.049 2078.39 866.935 2084.32C866.821 2090.13 866.764 2094.17 866.764 2096.45L907.438 2096.62C911.425 2096.62 914.786 2097.65 917.521 2099.7C920.255 2101.63 921.622 2104.25 921.622 2107.56C921.622 2110.86 920.255 2113.43 917.521 2115.25C914.9 2117.07 911.596 2117.98 907.608 2117.98H866.764L866.593 2205.31C866.593 2230.04 872.802 2242.4 885.221 2242.4C888.639 2242.4 893.709 2241.37 900.431 2239.32C907.153 2237.16 911.539 2236.07 913.59 2236.07C918.261 2236.07 920.597 2238.75 920.597 2244.11C920.597 2248.32 915.071 2252.54 904.02 2256.75C893.082 2260.97 881.803 2263.08 870.182 2263.08C858.674 2263.08 849.617 2258.58 843.009 2249.58C836.515 2240.57 833.268 2228.73 833.268 2214.03V2118.5ZM1106.98 2224.97C1135.8 2164.01 1150.22 2131.83 1150.22 2128.41C1150.22 2124.99 1148.96 2122.6 1146.46 2121.23C1143.95 2119.86 1141.22 2119.07 1138.25 2118.84C1130.28 2118.04 1126.29 2115.7 1126.29 2111.83C1126.29 2101.46 1138.54 2096.28 1163.03 2096.28H1169.87C1180.81 2096.28 1188.61 2098.05 1193.28 2101.58C1198.07 2105.11 1200.46 2108.41 1200.46 2111.49C1200.46 2114.57 1198.75 2116.45 1195.33 2117.13C1188.27 2118.38 1182.97 2120.38 1179.44 2123.11C1176.02 2125.73 1172.66 2130.63 1169.36 2137.81C1166.05 2144.99 1160.53 2157.23 1152.78 2174.55C1145.03 2191.87 1138.54 2206 1133.3 2216.93L1096.55 2292.47C1092.68 2300.67 1087.67 2307.45 1081.51 2312.81C1075.48 2318.28 1068.3 2321.01 1059.98 2321.01C1051.66 2321.01 1044.37 2318.9 1038.11 2314.69C1031.95 2310.59 1028.88 2305.23 1028.88 2298.62C1028.88 2292.13 1030.81 2286.94 1034.69 2283.07C1038.68 2279.31 1043.63 2277.43 1049.56 2277.43C1055.48 2277.43 1060.78 2278.91 1065.45 2281.88C1070.24 2284.84 1072.74 2288.48 1072.97 2292.81C1082.08 2278.34 1088.18 2267.06 1091.26 2258.97C1086.47 2245.76 1075.53 2222.63 1058.44 2189.59C1041.47 2156.44 1032.07 2137.98 1030.25 2134.22C1028.42 2130.35 1026.83 2127.67 1025.46 2126.19C1024.21 2124.71 1022.55 2123.45 1020.5 2122.43C1018.45 2121.4 1016.74 2120.66 1015.38 2120.21C1014.01 2119.75 1011.79 2119.12 1008.71 2118.33C1005.64 2117.53 1003.19 2116.84 1001.36 2116.27C999.426 2115.7 998.458 2113.94 998.458 2110.98C998.458 2101.18 1011.9 2096.28 1038.79 2096.28C1055.31 2096.28 1065.91 2097.13 1070.58 2098.84C1079.58 2102.03 1084.08 2106.25 1084.08 2111.49C1084.08 2115.02 1080.66 2117.47 1073.82 2118.84C1067.1 2120.09 1063.74 2122.54 1063.74 2126.19C1063.74 2126.64 1065.74 2132.05 1069.72 2142.42C1082.82 2176.37 1095.24 2203.89 1106.98 2224.97ZM1327.71 2260L1313.01 2260.17C1298.09 2260.17 1288.86 2257.89 1285.33 2253.33C1283.73 2251.28 1282.94 2248.83 1282.94 2245.99C1282.94 2243.02 1284.07 2240.97 1286.35 2239.83C1288.63 2238.69 1291.14 2238.07 1293.87 2237.95C1296.61 2237.84 1299.11 2236.99 1301.39 2235.39C1303.67 2233.68 1304.81 2231 1304.81 2227.36V2046.89C1304.81 2036.52 1300.71 2030.94 1292.51 2030.14C1291.71 2030.03 1290.68 2029.91 1289.43 2029.8C1288.18 2029.69 1287.26 2029.63 1286.7 2029.63C1286.13 2029.51 1285.39 2029.4 1284.47 2029.29C1283.68 2029.06 1283.05 2028.83 1282.59 2028.6C1282.25 2028.38 1281.91 2028.09 1281.57 2027.75C1280.77 2027.07 1280.37 2025.41 1280.37 2022.79C1280.37 2020.17 1282.14 2017.44 1285.67 2014.59C1292.05 2009.35 1300.65 2006.73 1311.48 2006.73C1322.98 2006.73 1329.7 2007.41 1331.64 2008.78C1335.52 2011.51 1337.45 2015.1 1337.45 2019.55V2227.36C1337.45 2233.97 1341.1 2237.5 1348.39 2237.95C1355.8 2238.3 1359.5 2241.2 1359.5 2246.67C1359.5 2252.94 1356.08 2256.81 1349.24 2258.29C1344 2259.43 1336.83 2260 1327.71 2260ZM1470.86 2241.37C1455.13 2225.88 1447.27 2205.31 1447.27 2179.68C1447.27 2154.04 1455.19 2133.25 1471.03 2117.3C1486.98 2101.24 1507.26 2093.2 1531.87 2093.2C1551.35 2093.2 1567.75 2099.53 1581.08 2112.17C1594.53 2124.71 1601.25 2140.49 1601.25 2159.51C1601.25 2168.74 1593.96 2173.35 1579.38 2173.35H1480.43C1480.65 2191.81 1486.64 2207.36 1498.37 2220.01C1510.11 2232.66 1524.92 2238.98 1542.8 2238.98C1554.65 2238.98 1566.16 2235.5 1577.33 2228.55C1583.25 2224.91 1587.01 2223.09 1588.6 2223.09C1590.31 2223.09 1592.19 2223.94 1594.24 2225.65C1596.41 2227.24 1597.49 2229.24 1597.49 2231.63C1597.49 2237.9 1593.45 2243.71 1585.36 2249.06C1577.38 2254.3 1568.55 2258.18 1558.87 2260.68C1549.18 2263.3 1540.7 2264.61 1533.4 2264.61C1507.54 2264.61 1486.69 2256.87 1470.86 2241.37ZM1569.81 2155.41C1569.58 2142.31 1566.16 2131.66 1559.55 2123.45C1552.94 2115.25 1543.26 2111.15 1530.5 2111.15C1517.85 2111.15 1506.74 2115.7 1497.17 2124.82C1487.72 2133.93 1482.7 2144.36 1482.13 2156.09H1522.12C1539.9 2156.09 1555.79 2155.87 1569.81 2155.41ZM1838.83 2118.5L1828.41 2118.67C1824.19 2118.67 1821.12 2118.27 1819.18 2117.47C1817.24 2116.67 1816.28 2115.02 1816.28 2112.51C1816.28 2109.89 1817.36 2107.56 1819.52 2105.51C1821.8 2103.34 1824.36 2101.69 1827.21 2100.55C1835.07 2097.36 1839.75 2094.68 1841.23 2092.52C1842.82 2090.24 1845.16 2085.34 1848.23 2077.82C1855.87 2059.02 1862.25 2049.62 1867.37 2049.62C1869.99 2049.62 1871.48 2052.47 1871.82 2058.17C1872.27 2063.75 1872.5 2068.02 1872.5 2070.99C1872.61 2073.95 1872.61 2078.39 1872.5 2084.32C1872.39 2090.13 1872.33 2094.17 1872.33 2096.45L1913 2096.62C1916.99 2096.62 1920.35 2097.65 1923.09 2099.7C1925.82 2101.63 1927.19 2104.25 1927.19 2107.56C1927.19 2110.86 1925.82 2113.43 1923.09 2115.25C1920.47 2117.07 1917.16 2117.98 1913.17 2117.98H1872.33L1872.16 2205.31C1872.16 2230.04 1878.37 2242.4 1890.79 2242.4C1894.21 2242.4 1899.28 2241.37 1906 2239.32C1912.72 2237.16 1917.11 2236.07 1919.16 2236.07C1923.83 2236.07 1926.16 2238.75 1926.16 2244.11C1926.16 2248.32 1920.64 2252.54 1909.59 2256.75C1898.65 2260.97 1887.37 2263.08 1875.75 2263.08C1864.24 2263.08 1855.18 2258.58 1848.58 2249.58C1842.08 2240.57 1838.83 2228.73 1838.83 2214.03V2118.5ZM2192.53 2260L2177.83 2260.17C2162.9 2260.17 2153.67 2257.89 2150.14 2253.33C2148.55 2251.28 2147.75 2248.83 2147.75 2245.99C2147.75 2243.02 2148.89 2240.97 2151.17 2239.83C2153.45 2238.69 2155.95 2238.07 2158.69 2237.95C2161.54 2237.84 2164.1 2236.99 2166.38 2235.39C2168.66 2233.68 2169.8 2231 2169.8 2227.36L2169.97 2177.63C2169.97 2156.66 2167.46 2141.23 2162.45 2131.31C2156.98 2120.15 2145.59 2114.57 2128.27 2114.57C2110.04 2114.57 2097.28 2120.32 2089.99 2131.83C2083.38 2142.54 2080.07 2158.09 2080.07 2178.48V2227.36C2080.07 2233.97 2083.72 2237.5 2091.01 2237.95C2098.42 2238.3 2102.12 2241.2 2102.12 2246.67C2102.12 2252.94 2098.65 2256.81 2091.7 2258.29C2086.68 2259.43 2079.56 2260 2070.33 2260L2055.64 2260.17C2040.71 2260.17 2031.48 2257.89 2027.95 2253.33C2026.36 2251.28 2025.56 2248.83 2025.56 2245.99C2025.56 2243.02 2026.7 2240.97 2028.98 2239.83C2031.25 2238.69 2033.76 2238.07 2036.5 2237.95C2039.34 2237.84 2041.91 2236.99 2044.19 2235.39C2046.46 2233.68 2047.6 2231 2047.6 2227.36V2041.25C2047.6 2034.64 2043.5 2030.65 2035.3 2029.29C2029.6 2028.38 2026.13 2027.41 2024.87 2026.38C2023.73 2025.24 2023.17 2023.42 2023.17 2020.91C2023.17 2018.41 2024.36 2016.13 2026.75 2014.08C2029.15 2012.03 2032.28 2010.49 2036.15 2009.46C2042.99 2007.64 2050.62 2006.73 2059.05 2006.73C2073.18 2006.73 2080.25 2011 2080.25 2019.55V2118.84C2095.74 2101.29 2115.34 2092.52 2139.03 2092.52C2162.73 2092.52 2179.2 2098.61 2188.42 2110.81C2197.77 2122.88 2202.44 2141.23 2202.44 2165.83L2202.27 2227.36C2202.27 2233.97 2205.91 2237.5 2213.2 2237.95C2220.61 2238.3 2224.31 2241.2 2224.31 2246.67C2224.31 2252.94 2220.89 2256.81 2214.06 2258.29C2208.82 2259.43 2201.64 2260 2192.53 2260ZM2343.7 2151.65C2339.49 2151.65 2334.7 2150 2329.35 2146.69C2324.11 2143.28 2321.49 2138.89 2321.49 2133.54C2321.49 2128.07 2323.02 2122.94 2326.1 2118.15C2329.18 2113.37 2333.16 2109.5 2338.06 2106.53C2342.96 2103.46 2348.66 2100.89 2355.15 2098.84C2367 2095.08 2379.76 2093.2 2393.43 2093.2C2416.45 2093.2 2433.14 2098.33 2443.51 2108.58C2453.99 2118.72 2459.23 2135.53 2459.23 2159L2459.06 2209.41C2459.06 2221.6 2460.6 2229.24 2463.67 2232.31C2464.47 2233.11 2466.98 2234.14 2471.19 2235.39C2482.81 2239.04 2488.62 2241.83 2488.62 2243.76C2488.62 2255.73 2476.38 2261.71 2451.88 2261.71C2442.65 2261.71 2436.61 2259.66 2433.77 2255.56C2431.03 2251.46 2429.55 2243.99 2429.32 2233.17C2424.2 2242.4 2416.39 2249.86 2405.91 2255.56C2395.43 2261.25 2384.21 2264.1 2372.24 2264.1C2360.28 2264.1 2350.14 2262.56 2341.82 2259.49C2333.51 2256.41 2326.73 2251.46 2321.49 2244.62C2316.36 2237.67 2313.79 2230.21 2313.79 2222.23C2313.79 2214.26 2314.71 2207.88 2316.53 2203.09C2318.35 2198.19 2320.63 2194.09 2323.37 2190.79C2326.1 2187.48 2329.8 2184.52 2334.47 2181.9C2339.26 2179.28 2343.7 2177.23 2347.8 2175.75C2351.91 2174.15 2357.2 2172.73 2363.7 2171.47C2373.27 2169.65 2381.3 2168.4 2387.79 2167.71C2394.29 2166.92 2397.65 2166.46 2397.88 2166.35C2398.56 2166.23 2402.43 2165.83 2409.5 2165.15C2416.68 2164.35 2422.32 2162.82 2426.42 2160.54C2426.42 2138.89 2423.51 2124.76 2417.7 2118.15C2412.57 2112.46 2404.14 2109.61 2392.41 2109.61C2380.67 2109.61 2371.84 2112.63 2365.92 2118.67C2360.11 2124.59 2357.2 2134.05 2357.2 2147.04L2357.37 2150.8C2352.59 2151.37 2348.03 2151.65 2343.7 2151.65ZM2426.42 2175.92C2418.67 2178.77 2409.9 2180.76 2400.1 2181.9C2390.41 2182.92 2382.78 2184.18 2377.2 2185.66C2371.62 2187.14 2366.94 2188.96 2363.18 2191.13C2354.53 2196.14 2350.2 2204.74 2350.2 2216.93C2350.2 2236.53 2361.59 2246.33 2384.38 2246.33C2404.09 2246.33 2416.56 2236.93 2421.8 2218.13C2424.88 2207.42 2426.42 2193.35 2426.42 2175.92ZM2590.24 2118.5L2579.82 2118.67C2575.6 2118.67 2572.52 2118.27 2570.59 2117.47C2568.65 2116.67 2567.68 2115.02 2567.68 2112.51C2567.68 2109.89 2568.76 2107.56 2570.93 2105.51C2573.21 2103.34 2575.77 2101.69 2578.62 2100.55C2586.48 2097.36 2591.15 2094.68 2592.63 2092.52C2594.23 2090.24 2596.56 2085.34 2599.64 2077.82C2607.27 2059.02 2613.65 2049.62 2618.78 2049.62C2621.4 2049.62 2622.88 2052.47 2623.22 2058.17C2623.68 2063.75 2623.91 2068.02 2623.91 2070.99C2624.02 2073.95 2624.02 2078.39 2623.91 2084.32C2623.79 2090.13 2623.74 2094.17 2623.74 2096.45L2664.41 2096.62C2668.4 2096.62 2671.76 2097.65 2674.49 2099.7C2677.23 2101.63 2678.59 2104.25 2678.59 2107.56C2678.59 2110.86 2677.23 2113.43 2674.49 2115.25C2671.87 2117.07 2668.57 2117.98 2664.58 2117.98H2623.74L2623.57 2205.31C2623.57 2230.04 2629.77 2242.4 2642.19 2242.4C2645.61 2242.4 2650.68 2241.37 2657.4 2239.32C2664.13 2237.16 2668.51 2236.07 2670.56 2236.07C2675.23 2236.07 2677.57 2238.75 2677.57 2244.11C2677.57 2248.32 2672.04 2252.54 2660.99 2256.75C2650.05 2260.97 2638.78 2263.08 2627.15 2263.08C2615.65 2263.08 2606.59 2258.58 2599.98 2249.58C2593.49 2240.57 2590.24 2228.73 2590.24 2214.03V2118.5ZM2982.83 2244.45C3008.46 2244.45 3021.28 2236.59 3021.28 2220.86C3021.28 2209.02 3009.72 2199.73 2986.59 2193.01C2982.26 2191.75 2977.02 2190.27 2970.87 2188.56C2959.36 2185.49 2951.61 2183.15 2947.62 2181.56C2937.6 2177.68 2929.11 2172.04 2922.16 2164.64C2915.21 2157.23 2911.73 2148.46 2911.73 2138.32C2911.73 2125.22 2917.94 2114.34 2930.36 2105.68C2942.89 2097.02 2957.99 2092.69 2975.65 2092.69C2992.85 2092.69 3008.98 2095.82 3024.01 2102.09C3031.42 2105.17 3037.4 2109.44 3041.96 2114.91C3046.63 2120.38 3048.97 2126.07 3048.97 2132C3048.97 2137.92 3046.57 2142.65 3041.79 2146.18C3037.12 2149.71 3032.22 2151.48 3027.09 2151.48C3022.08 2151.48 3018.72 2151.02 3017.01 2150.11C3015.41 2149.09 3014.62 2146.81 3014.62 2143.28C3014.62 2121.29 3002.94 2110.29 2979.58 2110.29C2969.9 2110.29 2961.47 2112.46 2954.29 2116.79C2947.11 2121 2943.52 2126.53 2943.52 2133.36C2943.52 2144.07 2954.69 2152.56 2977.02 2158.83C2980.55 2159.74 2984.82 2160.88 2989.83 2162.25C2994.85 2163.5 2999.46 2164.81 3003.68 2166.18C3007.89 2167.43 3012.28 2168.97 3016.84 2170.79C3021.51 2172.5 3026.41 2174.78 3031.53 2177.63C3036.66 2180.48 3040.82 2183.55 3044.01 2186.86C3051.42 2194.38 3055.12 2203.49 3055.12 2214.2C3055.12 2224.79 3051.53 2233.97 3044.35 2241.71C3030.11 2256.87 3009.6 2264.44 2982.83 2264.44C2965.4 2264.44 2949.33 2261.6 2934.63 2255.9C2927.12 2252.94 2921.08 2248.83 2916.52 2243.59C2911.96 2238.35 2909.68 2232.77 2909.68 2226.85C2909.68 2220.92 2911.56 2216.36 2915.32 2213.17C2919.08 2209.87 2923.36 2208.22 2928.14 2208.22C2932.93 2208.22 2936.97 2209.7 2940.27 2212.66C2943.69 2215.62 2945.4 2219.33 2945.4 2223.77C2945.4 2228.1 2945 2232.77 2944.21 2237.78C2956.28 2242.23 2969.16 2244.45 2982.83 2244.45ZM3304.05 2181.22C3304.05 2154.9 3296.42 2135.76 3281.15 2123.79C3273.17 2117.64 3263.66 2114.57 3252.61 2114.57C3219.91 2114.57 3203.56 2132.97 3203.56 2169.77V2225.99C3212.79 2237.95 3228.68 2243.94 3251.24 2243.94C3267.65 2243.94 3280.52 2238.07 3289.86 2226.33C3299.32 2214.48 3304.05 2199.44 3304.05 2181.22ZM3193.82 2330.07L3179.12 2330.24C3164.2 2330.24 3154.97 2327.96 3151.44 2323.4C3149.84 2321.35 3149.04 2318.85 3149.04 2315.88C3149.04 2313.04 3150.18 2311.04 3152.46 2309.9C3154.74 2308.76 3157.25 2308.14 3159.98 2308.02C3162.83 2307.91 3165.39 2307 3167.67 2305.29C3169.95 2303.69 3171.09 2301.07 3171.09 2297.43V2143.28C3171.09 2135.07 3170.46 2129.43 3169.21 2126.36C3168.07 2123.17 3165.39 2120.77 3161.18 2119.18C3160.72 2118.95 3158.44 2118.38 3154.34 2117.47C3145.8 2115.42 3141.52 2112.57 3141.52 2108.93C3141.52 2100.04 3152.97 2095.6 3175.88 2095.6C3185.56 2095.6 3192.34 2096.74 3196.21 2099.01C3200.09 2101.29 3202.02 2106.19 3202.02 2113.71C3202.02 2115.99 3201.97 2117.7 3201.85 2118.84C3210.62 2110.29 3219.45 2103.8 3228.34 2099.36C3237.23 2094.91 3248.56 2092.69 3262.35 2092.69C3276.14 2092.69 3289.01 2096.56 3300.97 2104.31C3313.05 2112.06 3322.16 2122.31 3328.32 2135.07C3334.47 2147.72 3337.54 2161.85 3337.54 2177.46C3337.54 2202.18 3329.46 2222.57 3313.28 2238.64C3297.1 2254.7 3276.53 2262.73 3251.58 2262.73C3237.57 2262.73 3221.56 2258.12 3203.56 2248.89V2297.43C3203.56 2304.03 3207.21 2307.51 3214.5 2307.85C3221.9 2308.31 3225.61 2311.27 3225.61 2316.74C3225.61 2323 3222.13 2326.88 3215.18 2328.36C3210.17 2329.5 3203.05 2330.07 3193.82 2330.07ZM3442.75 2241.37C3427.03 2225.88 3419.17 2205.31 3419.17 2179.68C3419.17 2154.04 3427.08 2133.25 3442.92 2117.3C3458.87 2101.24 3479.15 2093.2 3503.76 2093.2C3523.24 2093.2 3539.65 2099.53 3552.98 2112.17C3566.42 2124.71 3573.15 2140.49 3573.15 2159.51C3573.15 2168.74 3565.85 2173.35 3551.27 2173.35H3452.32C3452.55 2191.81 3458.53 2207.36 3470.26 2220.01C3482 2232.66 3496.81 2238.98 3514.7 2238.98C3526.55 2238.98 3538.05 2235.5 3549.22 2228.55C3555.14 2224.91 3558.9 2223.09 3560.5 2223.09C3562.21 2223.09 3564.09 2223.94 3566.14 2225.65C3568.3 2227.24 3569.39 2229.24 3569.39 2231.63C3569.39 2237.9 3565.34 2243.71 3557.25 2249.06C3549.28 2254.3 3540.45 2258.18 3530.76 2260.68C3521.08 2263.3 3512.59 2264.61 3505.3 2264.61C3479.44 2264.61 3458.59 2256.87 3442.75 2241.37ZM3541.7 2155.41C3541.47 2142.31 3538.05 2131.66 3531.45 2123.45C3524.84 2115.25 3515.15 2111.15 3502.39 2111.15C3489.75 2111.15 3478.64 2115.7 3469.07 2124.82C3459.61 2133.93 3454.6 2144.36 3454.03 2156.09H3494.02C3511.79 2156.09 3527.69 2155.87 3541.7 2155.41ZM3694.42 2151.65C3690.2 2151.65 3685.41 2150 3680.06 2146.69C3674.82 2143.28 3672.2 2138.89 3672.2 2133.54C3672.2 2128.07 3673.74 2122.94 3676.81 2118.15C3679.89 2113.37 3683.88 2109.5 3688.78 2106.53C3693.67 2103.46 3699.37 2100.89 3705.87 2098.84C3717.71 2095.08 3730.47 2093.2 3744.15 2093.2C3767.16 2093.2 3783.85 2098.33 3794.22 2108.58C3804.7 2118.72 3809.94 2135.53 3809.94 2159L3809.77 2209.41C3809.77 2221.6 3811.31 2229.24 3814.39 2232.31C3815.18 2233.11 3817.69 2234.14 3821.91 2235.39C3833.53 2239.04 3839.34 2241.83 3839.34 2243.76C3839.34 2255.73 3827.09 2261.71 3802.59 2261.71C3793.37 2261.71 3787.33 2259.66 3784.48 2255.56C3781.74 2251.46 3780.26 2243.99 3780.04 2233.17C3774.91 2242.4 3767.1 2249.86 3756.62 2255.56C3746.14 2261.25 3734.92 2264.1 3722.96 2264.1C3710.99 2264.1 3700.85 2262.56 3692.54 2259.49C3684.22 2256.41 3677.44 2251.46 3672.2 2244.62C3667.07 2237.67 3664.51 2230.21 3664.51 2222.23C3664.51 2214.26 3665.42 2207.88 3667.24 2203.09C3669.07 2198.19 3671.34 2194.09 3674.08 2190.79C3676.81 2187.48 3680.52 2184.52 3685.19 2181.9C3689.97 2179.28 3694.42 2177.23 3698.52 2175.75C3702.62 2174.15 3707.92 2172.73 3714.41 2171.47C3723.98 2169.65 3732.01 2168.4 3738.51 2167.71C3745 2166.92 3748.36 2166.46 3748.59 2166.35C3749.27 2166.23 3753.15 2165.83 3760.21 2165.15C3767.39 2164.35 3773.03 2162.82 3777.13 2160.54C3777.13 2138.89 3774.22 2124.76 3768.41 2118.15C3763.29 2112.46 3754.86 2109.61 3743.12 2109.61C3731.39 2109.61 3722.56 2112.63 3716.63 2118.67C3710.82 2124.59 3707.92 2134.05 3707.92 2147.04L3708.09 2150.8C3703.3 2151.37 3698.74 2151.65 3694.42 2151.65ZM3777.13 2175.92C3769.38 2178.77 3760.61 2180.76 3750.81 2181.9C3741.13 2182.92 3733.49 2184.18 3727.91 2185.66C3722.33 2187.14 3717.66 2188.96 3713.9 2191.13C3705.24 2196.14 3700.91 2204.74 3700.91 2216.93C3700.91 2236.53 3712.3 2246.33 3735.09 2246.33C3754.8 2246.33 3767.27 2236.93 3772.52 2218.13C3775.59 2207.42 3777.13 2193.35 3777.13 2175.92ZM3976.5 2260L3961.8 2260.17C3946.88 2260.17 3937.65 2257.89 3934.12 2253.33C3932.52 2251.28 3931.72 2248.83 3931.72 2245.99C3931.72 2243.02 3932.86 2240.97 3935.14 2239.83C3937.42 2238.69 3939.93 2238.07 3942.66 2237.95C3945.51 2237.84 3948.07 2236.99 3950.35 2235.39C3952.63 2233.68 3953.77 2231 3953.77 2227.36V2046.89C3953.77 2036.52 3949.73 2030.94 3941.64 2030.14C3940.84 2030.03 3939.81 2029.91 3938.56 2029.8C3937.31 2029.69 3936.4 2029.63 3935.83 2029.63C3935.26 2029.51 3934.52 2029.4 3933.6 2029.29C3932.81 2029.06 3932.18 2028.83 3931.72 2028.6C3931.38 2028.38 3930.98 2028.09 3930.53 2027.75C3929.73 2027.18 3929.33 2025.58 3929.33 2022.96C3929.33 2020.23 3931.04 2017.44 3934.46 2014.59C3940.95 2009.35 3949.61 2006.73 3960.44 2006.73C3971.94 2006.73 3978.66 2007.41 3980.6 2008.78C3984.48 2011.51 3986.41 2015.1 3986.41 2019.55V2169.08C3990.63 2165.89 4000.43 2158.71 4015.81 2147.55C4046.11 2125.67 4061.27 2113.71 4061.27 2111.66C4061.27 2109.04 4056.94 2106.36 4048.28 2103.63C4048.62 2093.26 4058.19 2088.08 4076.99 2088.08H4100.23C4128.94 2088.08 4143.3 2089.67 4143.3 2092.86C4143.3 2094.34 4141.64 2096.74 4138.34 2100.04C4135.15 2103.23 4131.85 2105.79 4128.43 2107.73C4120.91 2107.73 4112.25 2110.29 4102.45 2115.42C4092.77 2120.55 4080.81 2128.41 4066.56 2139L4037 2160.88L4090.66 2217.62C4097.15 2224.34 4103.02 2229.52 4108.26 2233.17C4113.62 2236.7 4118.52 2239.04 4122.96 2240.18C4127.4 2241.2 4130.71 2242 4132.87 2242.57C4135.15 2243.02 4136.8 2243.37 4137.83 2243.59C4138.85 2243.82 4140.16 2244.28 4141.76 2244.96C4143.35 2245.53 4144.55 2246.16 4145.35 2246.84C4147.28 2248.66 4148.25 2250.89 4148.25 2253.51C4148.25 2258.97 4139.42 2261.71 4121.76 2261.71H4113.56C4102.74 2261.71 4095.27 2261.2 4091.17 2260.17C4087.19 2259.26 4082.91 2256.64 4078.36 2252.31C4061.38 2236.25 4040.36 2210.27 4015.29 2174.38L3986.24 2194.03V2227.36C3986.24 2233.97 3989.89 2237.5 3997.18 2237.95C4004.58 2238.3 4008.29 2241.2 4008.29 2246.67C4008.29 2252.94 4004.87 2256.81 3998.03 2258.29C3992.79 2259.43 3985.61 2260 3976.5 2260ZM4310.03 2244.45C4335.66 2244.45 4348.48 2236.59 4348.48 2220.86C4348.48 2209.02 4336.91 2199.73 4313.79 2193.01C4309.46 2191.75 4304.21 2190.27 4298.06 2188.56C4286.56 2185.49 4278.81 2183.15 4274.82 2181.56C4264.79 2177.68 4256.31 2172.04 4249.36 2164.64C4242.41 2157.23 4238.93 2148.46 4238.93 2138.32C4238.93 2125.22 4245.14 2114.34 4257.56 2105.68C4270.09 2097.02 4285.19 2092.69 4302.85 2092.69C4320.05 2092.69 4336.17 2095.82 4351.21 2102.09C4358.62 2105.17 4364.6 2109.44 4369.16 2114.91C4373.83 2120.38 4376.16 2126.07 4376.16 2132C4376.16 2137.92 4373.77 2142.65 4368.99 2146.18C4364.31 2149.71 4359.42 2151.48 4354.29 2151.48C4349.28 2151.48 4345.91 2151.02 4344.21 2150.11C4342.61 2149.09 4341.81 2146.81 4341.81 2143.28C4341.81 2121.29 4330.13 2110.29 4306.78 2110.29C4297.09 2110.29 4288.66 2112.46 4281.49 2116.79C4274.31 2121 4270.72 2126.53 4270.72 2133.36C4270.72 2144.07 4281.88 2152.56 4304.21 2158.83C4307.75 2159.74 4312.02 2160.88 4317.03 2162.25C4322.05 2163.5 4326.66 2164.81 4330.88 2166.18C4335.09 2167.43 4339.48 2168.97 4344.03 2170.79C4348.71 2172.5 4353.6 2174.78 4358.73 2177.63C4363.86 2180.48 4368.02 2183.55 4371.21 2186.86C4378.61 2194.38 4382.32 2203.49 4382.32 2214.2C4382.32 2224.79 4378.73 2233.97 4371.55 2241.71C4357.31 2256.87 4336.8 2264.44 4310.03 2264.44C4292.59 2264.44 4276.53 2261.6 4261.83 2255.9C4254.31 2252.94 4248.27 2248.83 4243.72 2243.59C4239.16 2238.35 4236.88 2232.77 4236.88 2226.85C4236.88 2220.92 4238.76 2216.36 4242.52 2213.17C4246.28 2209.87 4250.55 2208.22 4255.34 2208.22C4260.12 2208.22 4264.17 2209.7 4267.47 2212.66C4270.89 2215.62 4272.6 2219.33 4272.6 2223.77C4272.6 2228.1 4272.2 2232.77 4271.4 2237.78C4283.48 2242.23 4296.35 2244.45 4310.03 2244.45ZM4532.98 2241.2C4532.98 2246.56 4531.21 2251.28 4527.68 2255.39C4524.15 2259.49 4519.31 2261.54 4513.16 2261.54C4507 2261.54 4502.1 2259.54 4498.46 2255.56C4494.81 2251.46 4492.99 2246.73 4492.99 2241.37C4492.99 2236.02 4494.64 2231.46 4497.95 2227.7C4501.36 2223.83 4506.26 2221.89 4512.64 2221.89C4519.02 2221.89 4523.98 2223.77 4527.51 2227.53C4531.16 2231.29 4532.98 2235.85 4532.98 2241.2ZM4533.83 2064.49L4520.67 2164.81C4519.76 2173.58 4518.79 2179.05 4517.77 2181.22C4516.74 2183.27 4515.49 2184.29 4514.01 2184.29C4512.64 2184.29 4511.62 2184.12 4510.93 2183.78C4510.36 2183.44 4509.85 2182.87 4509.4 2182.07C4508.94 2181.16 4508.54 2180.36 4508.2 2179.68C4507.97 2178.88 4507.74 2177.8 4507.52 2176.43C4507.4 2174.95 4507.29 2173.75 4507.17 2172.84C4507.06 2171.93 4506.89 2170.62 4506.66 2168.91C4506.55 2167.09 4506.43 2165.72 4506.32 2164.81L4493.16 2064.49C4492.93 2061.53 4492.82 2059.37 4492.82 2058C4492.82 2050.02 4494.87 2043.81 4498.97 2039.37C4503.07 2034.93 4507.91 2032.71 4513.5 2032.71C4519.08 2032.71 4523.92 2034.98 4528.02 2039.54C4532.12 2043.98 4534.18 2050.14 4534.18 2058C4534.18 2060.85 4534.06 2063.01 4533.83 2064.49Z" fill="black"/>
<defs>
<filter id="filter0_d_1_2730" x="0" y="204" width="6088" height="2230" filterUnits="userSpaceOnUse" color-interpolation-filters="sRGB">
<feFlood flood-opacity="0" result="BackgroundImageFix"/>
<feColorMatrix in="SourceAlpha" type="matrix" values="0 0 0 0 0 0 0 0 0 0 0 0 0 0 0 0 0 0 127 0" result="hardAlpha"/>
<feOffset dy="4"/>
<feGaussianBlur stdDeviation="2"/>
<feComposite in2="hardAlpha" operator="out"/>
<feColorMatrix type="matrix" values="0 0 0 0 0 0 0 0 0 0 0 0 0 0 0 0 0 0 0.25 0"/>
<feBlend mode="normal" in2="BackgroundImageFix" result="effect1_dropShadow_1_2730"/>
<feBlend mode="normal" in="SourceGraphic" in2="effect1_dropShadow_1_2730" result="shape"/>
</filter>
</defs>
</svg>
